<?xml version="1.0" encoding="utf-8"?>
<!-- Generator: Adobe Illustrator 21.0.0, SVG Export Plug-In . SVG Version: 6.00 Build 0)  -->
<svg version="1.1" id="Layer_1" xmlns="http://www.w3.org/2000/svg" xmlns:xlink="http://www.w3.org/1999/xlink" x="0px" y="0px"
	viewBox="0 0 300 40" style="enable-background:new 0 0 300 40;" xml:space="preserve">

<defs>
	<filter id="f3" x="0" y="0" width="200%" height="200%">
	<feOffset result="offOut" in="SourceAlpha" dx="0" dy="5" />
	<feGaussianBlur result="blurOut" in="offOut" stdDeviation="5" />
	<feBlend in="SourceGraphic" in2="blurOut" mode="normal" />
	</filter>
</defs>
<style type="text/css">
	.st0{fill:#0A1E29;}
	.st1{opacity:0.98;fill:#F7931E;}
	.st2{opacity:0.78;fill:#4D003B;}
	.st3{opacity:0.86;fill:#C1272D;}
</style>
<g>
	<path class="st0" d="M98.5-13.6"/>
	<g>
		<path class="st1" d="M193.4,40c14.4-3.1,29.5-3.4,43.1,0h59.7c-1.4-2.1-3-4.2-4.7-6.2c-31.5-37.8-80.8-28.8-124-16.1
			c-33.4,9.6-61.7-1.3-91.9-15.3C57.7-6.7,54.3,19.5,34.9,18.8c-11.2,0.3-9.6-12.9-25-12c0,0-5.5-0.4-8.7,12.8
			c-1.9,9.7-1,10.3-1,20.5H193.4z" filter="url(#f3)" />
		<path class="st2" d="M115.7,40c-11.7-1.1-23.5-1.5-34.2-1.6c-5.6-0.2-11.1,0.4-16.2,1.6H9.5c5.8-8.4,14.1-15.7,25.1-21.1
			c17.8-7.9,37.6-9.8,58.5-5.8c37.3,8.1,72.5,20.7,110.1,14.1c22.5-3.5,31.5,5.9,53.4,0.2c11.3-3.4,29.7-18.1,36.8-10.7
			c0,0,4.4,3.3,5.8,11.3C299.8,32,300,36,300,40H115.7z" filter="url(#f3)" />
		<path class="st3" d="M260.6,40H217c-15.4-4.1-33.2-3.9-49.4,0H42.2c-7.6-5.2-9.4-13.1-7.3-21.3c2.8-9.4,13.4-9.1,13.4-9.1
			c11.1,4.3,4.4,6.6,14,7.7c9.1,0.8,16.9-3.3,26-3.2c24.9,1.2,47,4.2,71.6,3.4c28.1-1.6,56-5.3,81.7,5.5
			C250.3,26.8,256.4,32.9,260.6,40z" filter="url(#f3)" />
	</g>
</g>
</svg>
