<svg height="512pt" viewBox="0 0 512 512" width="512pt" xmlns="http://www.w3.org/2000/svg"><path d="m98.332031 138c0-11.046875 8.953125-20 20-20h196.667969c11.046875 0 20 8.953125 20 20s-8.953125 20-20 20h-196.667969c-11.042969 0-20-8.953125-20-20zm20 138h196.667969c11.046875 0 20-8.953125 20-20s-8.953125-20-20-20h-196.667969c-11.046875 0-20 8.953125-20 20s8.957031 20 20 20zm118.003907 78h-118.003907c-11.046875 0-20 8.953125-20 20s8.953125 20 20 20h118.003907c11.042968 0 20-8.953125 20-20s-8.953126-20-20-20zm275.664062 20v118c0 11.046875-8.953125 20-20 20-12.515625 0-420.664062 0-432.671875 0-32.714844 0-59.328125-26.613281-59.328125-59.328125v-393.34375c0-32.714844 26.613281-59.328125 59.328125-59.328125h314.675781c32.714844 0 59.332032 26.613281 59.332032 59.328125v227.722656l72.804687 72.808594c3.753906 3.75 5.859375 8.835937 5.859375 14.140625zm-452.671875 98h255.34375v-98c0-5.304688 2.105469-10.390625 5.855469-14.140625l72.808594-72.816406v-227.714844c0-10.65625-8.671876-19.328125-19.332032-19.328125h-314.675781c-10.65625 0-19.328125 8.671875-19.328125 19.328125v393.34375c0 10.65625 8.671875 19.328125 19.328125 19.328125zm412.671875-89.714844-58.667969-58.671875-58.660156 58.667969v89.71875h117.328125zm0 0"/></svg>