<?xml version="1.0" encoding="UTF-8" standalone="no"?>
<svg
   xmlns:dc="http://purl.org/dc/elements/1.1/"
   xmlns:cc="http://creativecommons.org/ns#"
   xmlns:rdf="http://www.w3.org/1999/02/22-rdf-syntax-ns#"
   xmlns:svg="http://www.w3.org/2000/svg"
   xmlns="http://www.w3.org/2000/svg"
   viewBox="0 0 793.70667 1122.52"
   height="1122.52"
   width="793.70667"
   xml:space="preserve"
   id="svg2"
   version="1.1"><metadata
     id="metadata8"><rdf:RDF><cc:Work
         rdf:about=""><dc:format>image/svg+xml</dc:format><dc:type
           rdf:resource="http://purl.org/dc/dcmitype/StillImage" /></cc:Work></rdf:RDF></metadata><defs
     id="defs6"><clipPath
       id="clipPath18"
       clipPathUnits="userSpaceOnUse"><path
         id="path16"
         d="M 0,841.89 H 595.28 V 0 H 0 Z" /></clipPath></defs><g
     transform="matrix(1.3333333,0,0,-1.3333333,0,1122.52)"
     id="g10"><g
       id="g12"><g
         clip-path="url(#clipPath18)"
         id="g14"><g
           transform="translate(361.8557,362.6955)"
           id="g20"><path
             id="path22"
             style="fill:#ffffff;fill-opacity:1;fill-rule:nonzero;stroke:none"
             d="m 0,0 c -1.205,-1.158 -2.142,-2.059 -3.076,-2.956 0.06,-0.84 -0.219,-1.647 0.228,-2.42 0.954,-0.06 1.855,-0.169 2.793,0.098 C 0.127,-3.601 0.041,-1.998 0,0 m 5.082,-49.035 c -0.07,-0.349 -0.132,-0.516 -0.132,-0.683 -0.008,-3.951 -0.013,-7.901 -0.002,-11.851 10e-4,-0.268 0.126,-0.534 0.218,-0.896 0.507,0.063 0.941,0.118 1.359,0.17 0.056,0.283 0.117,0.449 0.117,0.615 0.007,3.95 0.01,7.9 0,11.851 -0.001,0.263 -0.121,0.526 -0.186,0.794 z m -136.3,-1.733 c 1.55,0.437 2.984,-0.074 4.342,0.406 v 1.21 c -1.49,0.227 -8.749,0.234 -10.337,0.022 -0.172,-0.75 -0.172,-0.75 0.215,-1.446 0.95,0 1.942,0.017 2.932,-0.009 0.323,-0.009 0.643,-0.13 1.052,-0.218 0,-1.365 0,-2.643 0,-3.922 0,-1.226 -0.01,-2.452 0.003,-3.677 0.013,-1.271 -0.06,-2.546 0.058,-3.871 0.587,-0.156 1.065,-0.334 1.646,0.141 0.114,3.707 -0.041,7.488 0.089,11.364 m 23.263,-11.325 c 0,1.486 0.025,2.943 -0.01,4.399 -0.018,0.737 0.193,1.346 0.613,1.947 1.338,1.909 2.642,3.843 3.943,5.777 0.173,0.257 0.255,0.574 0.406,0.926 h -1.888 c -1.13,-1.736 -2.234,-3.447 -3.358,-5.146 -0.174,-0.263 -0.437,-0.466 -0.746,-0.787 -1.361,2.065 -2.637,4.002 -3.916,5.942 -0.35,0.02 -0.639,0.066 -0.925,0.045 -0.308,-0.022 -0.688,0.143 -0.943,-0.32 0.23,-0.366 0.462,-0.762 0.719,-1.142 0.818,-1.206 1.653,-2.401 2.467,-3.609 0.585,-0.869 1.373,-1.685 1.66,-2.647 0.305,-1.024 0.121,-2.192 0.162,-3.297 0.028,-0.745 -0.111,-1.508 0.143,-2.208 0.549,-0.325 1.029,-0.336 1.673,0.12 m 81.905,13.019 c -0.048,-0.299 -0.113,-0.522 -0.114,-0.745 -0.007,-2.622 -0.02,-5.244 0.006,-7.866 0.006,-0.575 0.13,-1.155 0.252,-1.721 0.409,-1.9 1.702,-2.872 3.532,-3.128 0.913,-0.129 1.865,-0.107 2.787,-0.023 2.087,0.19 3.418,1.433 3.786,3.498 0.132,0.742 0.175,1.507 0.184,2.262 0.024,2.156 0.015,4.312 0.005,6.468 -10e-4,0.394 -0.066,0.789 -0.104,1.208 -0.589,0.168 -1.07,0.213 -1.609,-0.061 -0.02,-0.62 -0.053,-1.194 -0.056,-1.769 -0.007,-1.981 0.015,-3.963 -0.014,-5.943 -0.01,-0.693 -0.065,-1.402 -0.226,-2.074 -0.284,-1.189 -1.041,-1.942 -2.309,-2.035 -0.632,-0.047 -1.274,-0.055 -1.904,-0.002 -1.342,0.114 -2.113,0.915 -2.352,2.199 -0.149,0.797 -0.244,1.613 -0.259,2.423 -0.042,2.271 -0.026,4.544 -0.045,6.816 -0.002,0.16 -0.108,0.32 -0.17,0.493 z m -55.625,0.014 c -0.051,-0.34 -0.128,-0.619 -0.129,-0.898 -0.01,-2.389 -0.024,-4.779 0.006,-7.167 0.009,-0.695 0.111,-1.396 0.247,-2.078 0.375,-1.874 1.496,-3.044 3.372,-3.293 1.141,-0.151 2.341,-0.161 3.476,0.015 1.702,0.264 2.79,1.353 3.224,3.047 0.029,0.113 0.038,0.23 0.061,0.345 0.305,1.524 0.36,8.165 0.076,9.942 -0.478,0.22 -0.957,0.251 -1.527,-0.07 -0.024,-0.562 -0.067,-1.134 -0.07,-1.707 -0.01,-1.749 0.017,-3.497 -0.014,-5.245 -0.016,-0.871 -0.054,-1.754 -0.216,-2.607 -0.239,-1.259 -0.978,-2.106 -2.335,-2.226 -0.575,-0.051 -1.164,-0.105 -1.732,-0.033 -1.627,0.205 -2.378,0.929 -2.625,2.544 -0.123,0.803 -0.158,1.624 -0.169,2.438 -0.024,1.806 0.001,3.612 -0.014,5.419 -0.004,0.507 -0.077,1.014 -0.122,1.574 z m -74.451,-13.32 c -1.887,4.625 -3.662,8.975 -5.442,13.337 h -1.927 c -1.69,-4.145 -3.215,-8.353 -4.838,-12.523 -0.078,-0.203 -0.059,-0.443 -0.083,-0.649 0.55,-0.348 1.042,-0.303 1.623,-0.013 0.479,1.231 0.982,2.524 1.489,3.826 h 5.56 c 0.786,-1.238 0.959,-2.75 1.769,-3.978 z m 145.383,4.202 c -0.158,-1.65 0.542,-2.787 1.742,-3.497 2.199,-1.301 4.543,-1.371 6.835,-0.219 1.365,0.685 2,1.89 1.962,3.438 -0.038,1.533 -0.894,2.503 -2.212,3.063 -0.849,0.361 -1.773,0.547 -2.666,0.802 -0.837,0.239 -1.688,0.436 -2.514,0.709 -0.654,0.217 -1.081,0.682 -1.11,1.414 -0.027,0.706 0.303,1.245 0.883,1.603 1.111,0.685 2.331,0.69 3.548,0.406 0.962,-0.224 1.667,-0.798 1.973,-1.789 0.048,-0.156 0.186,-0.284 0.331,-0.498 0.417,0.037 0.856,0.076 1.292,0.115 -0.104,1.666 -0.689,2.605 -2.035,3.265 -0.956,0.469 -1.992,0.684 -3.048,0.644 -1.235,-0.047 -2.415,-0.331 -3.423,-1.13 -1.636,-1.299 -1.87,-4.226 0.482,-5.392 0.569,-0.282 1.176,-0.504 1.786,-0.683 0.892,-0.262 1.809,-0.435 2.702,-0.695 0.497,-0.145 0.983,-0.357 1.442,-0.599 0.559,-0.295 0.802,-0.801 0.829,-1.437 0.04,-0.924 -0.377,-1.561 -1.17,-1.975 -1.818,-0.948 -5.547,-0.576 -6.076,2.133 -0.019,0.099 -0.135,0.178 -0.25,0.322 z m 53.311,-0.005 c -0.049,-1.769 0.558,-2.938 1.987,-3.678 1.973,-1.021 4.039,-1.052 6.094,-0.272 0.526,0.2 1.008,0.591 1.427,0.984 1.344,1.26 1.576,4.327 -0.787,5.526 -0.567,0.288 -1.171,0.523 -1.782,0.701 -0.894,0.259 -1.816,0.425 -2.715,0.669 -0.502,0.137 -1.015,0.296 -1.466,0.546 -0.782,0.434 -1.025,1.351 -0.537,2.113 0.238,0.371 0.623,0.692 1.012,0.911 0.793,0.446 1.691,0.437 2.565,0.341 1.168,-0.129 2.126,-0.599 2.562,-1.803 0.075,-0.205 0.232,-0.381 0.319,-0.519 h 1.352 c 0.126,1.393 -0.536,2.285 -1.529,2.984 -1.094,0.771 -2.368,0.993 -3.665,0.947 -1.237,-0.044 -2.416,-0.355 -3.403,-1.193 -1.553,-1.319 -1.768,-4.098 0.515,-5.293 0.563,-0.295 1.174,-0.516 1.785,-0.697 0.893,-0.265 1.813,-0.439 2.708,-0.698 0.499,-0.144 0.99,-0.345 1.451,-0.586 0.628,-0.327 0.881,-0.899 0.875,-1.597 -0.007,-0.85 -0.436,-1.431 -1.156,-1.82 -1.753,-0.948 -5.527,-0.646 -6.1,2.102 -0.021,0.1 -0.131,0.181 -0.247,0.332 z m -233.078,5.532 c 0.071,1.734 -0.837,2.716 -2.191,3.336 -1.665,0.763 -3.402,0.818 -5.106,0.146 -0.579,-0.228 -1.135,-0.619 -1.58,-1.058 -1.245,-1.229 -1.411,-3.744 0.689,-4.937 0.503,-0.286 1.052,-0.508 1.604,-0.684 0.609,-0.195 1.254,-0.276 1.867,-0.458 0.835,-0.248 1.692,-0.469 2.473,-0.842 0.913,-0.437 1.217,-1.456 0.844,-2.391 -0.204,-0.512 -0.588,-0.863 -1.07,-1.108 -1.793,-0.908 -5.499,-0.602 -6.074,2.185 -0.019,0.095 -0.146,0.168 -0.299,0.336 -0.37,-0.034 -0.808,-0.074 -1.24,-0.113 0.059,-1.826 0.663,-2.921 2.085,-3.648 1.922,-0.981 3.931,-1.016 5.935,-0.291 0.531,0.192 1.019,0.569 1.453,0.945 1.432,1.244 1.706,4.427 -0.752,5.637 -0.571,0.281 -1.176,0.512 -1.788,0.687 -0.895,0.257 -1.815,0.427 -2.716,0.666 -0.448,0.118 -0.903,0.258 -1.31,0.473 -0.924,0.488 -1.173,1.561 -0.518,2.372 0.277,0.344 0.697,0.625 1.109,0.797 1.063,0.443 2.157,0.38 3.253,0.054 1.004,-0.299 1.479,-1.068 1.842,-1.957 0.021,-0.051 0.078,-0.086 0.197,-0.213 0.371,0.019 0.811,0.041 1.293,0.066 m 247.784,-5.555 c 0.234,-2.355 1.433,-3.613 3.425,-4.169 1.314,-0.367 2.658,-0.357 3.983,-0.078 0.501,0.106 0.993,0.351 1.435,0.622 1.302,0.795 1.953,1.962 1.851,3.511 -0.096,1.445 -0.928,2.376 -2.187,2.907 -0.851,0.361 -1.771,0.563 -2.665,0.819 -0.838,0.24 -1.693,0.424 -2.52,0.697 -0.651,0.215 -1.074,0.66 -1.095,1.416 -0.021,0.786 0.31,1.36 0.986,1.714 1.087,0.568 2.244,0.572 3.408,0.308 1.062,-0.241 1.715,-0.936 2.06,-1.95 0.033,-0.097 0.145,-0.166 0.291,-0.325 0.38,0.025 0.825,0.053 1.325,0.086 -0.043,1.51 -0.738,2.519 -1.933,3.174 -1.207,0.662 -2.528,0.882 -3.893,0.698 -0.989,-0.134 -1.922,-0.428 -2.742,-1.051 -1.641,-1.247 -1.854,-4.332 0.446,-5.411 0.577,-0.271 1.177,-0.507 1.787,-0.687 0.893,-0.262 1.813,-0.435 2.706,-0.695 0.498,-0.146 1.005,-0.331 1.44,-0.605 1.045,-0.659 1.209,-1.956 0.37,-2.86 -0.269,-0.29 -0.628,-0.548 -0.996,-0.685 -2.122,-0.787 -5.206,-0.239 -5.802,2.249 -0.024,0.103 -0.126,0.187 -0.218,0.315 z m -143.791,2.528 c 0.077,0.922 -0.111,1.896 -0.464,2.825 -1.092,2.871 -3.382,4.178 -6.069,4.115 -3.236,-0.075 -5.07,-1.881 -5.923,-4.325 -0.429,-1.227 -0.533,-2.505 -0.348,-3.79 0.557,-3.87 3.387,-6.081 7.012,-5.759 2.058,0.184 3.645,1.112 4.73,2.861 0.754,1.214 1.105,2.553 1.062,4.073 m 107.563,-3.196 c -0.129,-0.038 -0.258,-0.077 -0.386,-0.115 -2.216,3.337 -4.432,6.674 -6.65,10.014 -0.61,-0.03 -1.113,-0.054 -1.697,-0.083 -0.04,-0.547 -0.101,-1.002 -0.102,-1.458 -0.009,-3.437 -0.008,-6.874 -10e-4,-10.312 10e-4,-0.404 0.048,-0.809 0.1,-1.211 0.013,-0.098 0.127,-0.182 0.258,-0.358 0.32,0.021 0.697,0.045 1.192,0.076 0.031,0.661 0.078,1.231 0.081,1.801 0.009,2.447 0.003,4.894 0.011,7.34 10e-4,0.268 -0.062,0.594 0.453,0.724 0.294,-0.432 0.618,-0.902 0.935,-1.378 1.712,-2.568 3.413,-5.143 5.137,-7.704 0.725,-1.078 0.998,-1.13 2.353,-0.579 0,4.223 0.002,8.469 -0.006,12.714 -0.001,0.102 -0.102,0.203 -0.161,0.315 h -1.42 c -0.013,-1.192 -0.029,-2.29 -0.035,-3.387 -0.005,-1.049 0.012,-2.098 -0.004,-3.146 -0.017,-1.084 0.071,-2.175 -0.058,-3.253 m 8.903,2.562 c 0.723,0.026 1.296,0.058 1.869,0.065 1.692,0.019 3.383,0.026 5.075,0.049 0.095,0.002 0.189,0.112 0.293,0.178 0.206,0.447 0.244,0.881 -0.235,1.381 -0.48,0 -1.056,0 -1.631,0.001 -1.459,10e-4 -2.918,-0.009 -4.377,0.012 -0.325,0.005 -0.649,0.118 -1.067,0.199 0.045,1.289 -0.197,2.491 0.163,3.709 1.322,0.289 2.606,0.078 3.877,0.15 1.266,0.071 2.551,-0.181 3.862,0.183 v 1.278 c -1.596,0.264 -3.169,0.118 -4.732,0.112 -1.605,-0.007 -3.228,0.178 -4.857,-0.151 -0.026,-0.507 -0.065,-0.91 -0.064,-1.312 0.016,-3.85 0.039,-7.699 0.062,-11.548 10e-4,-0.056 0.02,-0.12 0.052,-0.166 0.031,-0.045 0.088,-0.072 0.134,-0.107 1.174,-0.209 6.65,-0.316 9.065,-0.163 0.215,0.013 0.424,0.127 0.653,0.2 v 1.267 c -2.729,0.243 -5.404,-0.092 -8.158,0.207 -0.129,1.47 -0.119,2.846 0.016,4.456 m -95.682,7.202 c -0.03,-0.622 -0.08,-1.191 -0.081,-1.761 -0.009,-2.683 -0.007,-5.367 -0.003,-8.05 0.002,-0.991 0.012,-1.983 0.042,-2.973 0.004,-0.154 0.135,-0.305 0.253,-0.552 0.428,0.048 0.863,0.097 1.351,0.152 0.027,0.568 0.063,1.025 0.068,1.482 0.01,1.05 -0.012,2.101 0.017,3.15 0.008,0.325 0.136,0.646 0.222,1.024 1.071,0 2.061,0.029 3.049,-0.008 1.343,-0.05 2.315,-0.714 2.893,-1.926 0.199,-0.419 0.346,-0.865 0.504,-1.303 0.296,-0.814 0.582,-1.631 0.849,-2.382 1.047,-0.183 1.047,-0.183 1.798,0.168 -0.796,1.957 -1.045,4.173 -2.94,5.698 0.408,0.264 0.747,0.467 1.069,0.694 1.277,0.898 1.764,2.14 1.49,3.655 -0.288,1.593 -1.229,2.609 -2.835,2.949 -0.34,0.072 -0.695,0.098 -1.043,0.1 -1.983,0.009 -3.967,0.008 -5.95,0.001 -0.22,-0.001 -0.44,-0.067 -0.753,-0.118 m -78.324,-7.333 c 0.149,0.181 0.207,0.29 0.298,0.352 0.143,0.097 0.308,0.162 0.463,0.242 1.253,0.653 2.111,2.137 1.684,4.049 -0.365,1.632 -1.588,2.618 -3.38,2.787 -0.289,0.027 -0.582,0.029 -0.873,0.029 -1.748,0.003 -3.497,0.006 -5.245,-10e-4 -0.334,-0.002 -0.668,-0.051 -0.972,-0.076 -0.261,-1.525 -0.279,-11.544 -0.04,-13.167 0.471,-0.307 0.946,-0.334 1.49,0.057 0.024,0.427 0.067,0.885 0.072,1.342 0.013,1.049 -0.01,2.099 0.019,3.147 0.009,0.325 0.138,0.646 0.23,1.044 1.06,0 2.048,0.029 3.035,-0.006 1.414,-0.05 2.418,-0.755 2.994,-2.044 0.189,-0.424 0.314,-0.876 0.471,-1.315 0.216,-0.603 0.405,-1.218 0.665,-1.801 0.107,-0.24 0.341,-0.525 0.571,-0.587 0.426,-0.113 0.911,-0.198 1.297,0.172 -0.667,2.947 -1.327,4.335 -2.779,5.776 M 8.598,-5.367 C 8.882,-3.71 8.956,3.726 8.796,12.723 8.792,12.924 8.894,13.191 8.517,13.34 8.404,13.182 8.26,13.019 8.158,12.833 6.99,10.691 5.843,8.536 4.652,6.405 4.384,5.926 4.259,5.455 4.26,4.919 4.267,1.777 4.261,-1.365 4.274,-4.507 4.275,-4.777 4.375,-5.047 4.44,-5.367 Z M -40.89,-49.095 c -0.062,-0.288 -0.149,-0.508 -0.15,-0.727 -0.009,-3.907 -0.013,-7.813 0,-11.719 10e-4,-0.265 0.136,-0.529 0.231,-0.879 2.224,-0.03 4.369,-0.204 6.507,0.166 0.397,0.069 0.787,0.199 1.167,0.339 2.698,0.992 2.655,4.928 0.819,6.04 -0.286,0.173 -0.54,0.399 -0.914,0.68 0.263,0.253 0.471,0.429 0.65,0.631 1.537,1.732 1.053,4.119 -1.046,5.072 -0.746,0.338 -1.541,0.519 -2.374,0.511 -1.341,-0.012 -2.682,0.003 -4.023,-0.007 -0.279,-0.002 -0.557,-0.067 -0.867,-0.107 m -137.792,-10.507 c -0.125,0.007 -0.249,0.013 -0.373,0.02 -1.256,3.478 -2.228,7.059 -3.507,10.539 -0.89,0.059 -1.687,0.15 -2.568,-0.069 -0.03,-0.498 -0.078,-0.952 -0.081,-1.406 -0.009,-1.749 -0.007,-3.497 -0.003,-5.246 0.006,-2.039 0.014,-4.078 0.036,-6.118 0.002,-0.152 0.134,-0.303 0.209,-0.465 0.476,-0.097 0.931,-0.242 1.309,0.192 0.022,0.052 0.061,0.104 0.061,0.156 0.021,3.088 0.039,6.176 0.059,9.264 0,0.115 0.017,0.231 0.035,0.346 0.009,0.056 0.023,0.125 0.061,0.16 0.033,0.031 0.103,0.021 0.248,0.044 0.125,-0.276 0.289,-0.572 0.396,-0.886 0.489,-1.433 0.96,-2.871 1.439,-4.306 0.479,-1.436 0.97,-2.868 1.436,-4.308 0.194,-0.601 0.592,-0.838 1.192,-0.76 0.223,0.029 0.44,0.114 0.695,0.183 1.131,3.324 2.255,6.629 3.384,9.932 0.015,0.044 0.089,0.083 0.142,0.095 0.047,0.011 0.104,-0.018 0.257,-0.051 0.023,-0.419 0.069,-0.867 0.07,-1.315 0.008,-2.331 -0.001,-4.662 0.008,-6.994 0.001,-0.463 0.011,-0.934 0.101,-1.385 0.033,-0.169 0.297,-0.396 0.47,-0.41 0.313,-0.024 0.636,0.092 0.965,0.151 0.039,0.389 0.091,0.676 0.092,0.964 0.004,3.73 0.006,7.46 -0.006,11.19 -0.001,0.33 -0.098,0.661 -0.159,1.039 -0.884,0.05 -1.675,0.184 -2.515,-0.102 -0.569,-1.741 -1.124,-3.454 -1.688,-5.164 -0.584,-1.765 -1.177,-3.526 -1.765,-5.29 m 137.323,299.26 c -0.211,-0.378 -0.427,-0.691 -0.569,-1.034 -1.916,-4.63 -2.825,-9.494 -3.119,-14.459 -0.238,-4.013 -0.183,-8.032 0.212,-12.05 0.572,-5.82 1.69,-11.524 3.235,-17.154 0.054,-0.197 0.15,-0.383 0.249,-0.63 0.14,0.173 0.26,0.252 0.26,0.331 0.006,14.874 0.004,29.748 -0.006,44.621 0,0.087 -0.118,0.174 -0.262,0.375 m 189.073,-304.18 c 0.373,-0.064 0.541,-0.119 0.71,-0.119 4.893,-0.006 9.785,-0.009 14.678,0.001 0.27,0.001 0.539,0.115 0.806,0.175 0.038,0.311 0.09,0.54 0.09,0.77 0.005,4.66 0.008,9.319 -0.005,13.979 -0.001,0.323 -0.132,0.645 -0.195,0.936 -2.013,0.179 -22.293,0.143 -23.634,-0.032 -0.015,-0.11 -0.078,-0.244 -0.037,-0.327 2.517,-5.117 5.043,-10.229 7.587,-15.383 M -28.112,162.04 c 0.117,0.04 0.235,0.081 0.352,0.121 v 1.897 c 0,30.592 0.001,61.184 0,91.775 0,0.526 0.02,1.053 -0.014,1.576 -0.016,0.244 -0.141,0.481 -0.26,0.859 -1.466,-1.258 -2.527,-2.651 -3.7,-3.939 -0.507,-0.557 -0.714,-1.173 -0.661,-1.914 0.033,-0.465 0.005,-0.934 0.005,-1.401 v -60.249 c 0,-6.247 0.012,-12.493 -0.012,-18.74 -0.003,-1.016 0.151,-1.943 0.629,-2.857 1.108,-2.118 2.146,-4.273 3.219,-6.41 0.126,-0.25 0.293,-0.479 0.442,-0.718 m 27.815,-46.166 c 0.114,0.019 0.229,0.038 0.343,0.057 0,0.63 0,1.261 0,1.891 0,49.793 0,99.587 0,149.38 0,0.526 0.015,1.052 -0.009,1.576 -0.015,0.337 -0.088,0.671 -0.138,1.026 -0.982,0.249 -1.883,0.259 -2.82,0.001 -0.289,-0.768 -0.169,-1.532 -0.169,-2.276 -0.006,-48.159 -0.005,-96.318 -0.005,-144.477 0,-0.467 -0.026,-0.936 0.014,-1.4 0.029,-0.34 0.082,-0.706 0.236,-1.003 0.83,-1.602 1.695,-3.185 2.548,-4.775 m 91.872,59.877 C 91.4,174.42 91.276,-2.475 91.429,-4.626 c 0.016,-0.22 0.102,-0.434 0.181,-0.76 1.227,0.004 2.416,-0.27 3.619,0.197 v 178.877 c -1.17,0.661 -2.326,1.313 -3.654,2.063 M 117.652,-5.342 c 1.195,-0.114 2.227,-0.177 3.319,0.024 0.058,0.332 0.15,0.61 0.15,0.888 -0.012,61.512 -0.031,123.023 -0.059,184.534 0,0.082 -0.142,0.163 -0.256,0.286 -0.655,-0.39 -1.042,-1.099 -1.639,-1.525 -1.454,-1.04 -1.671,-2.41 -1.67,-4.097 0.04,-59.12 0.033,-118.241 0.033,-177.361 0,-0.583 -0.008,-1.167 0.008,-1.75 0.008,-0.284 0.063,-0.566 0.114,-0.999 M 4.289,269.452 C 4.278,268.382 4.262,267.571 4.262,266.761 4.261,213.992 4.261,161.223 4.261,108.454 c 0,-0.409 0.015,-0.818 -0.003,-1.226 -0.032,-0.714 0.137,-1.369 0.404,-2.034 1.193,-2.976 2.347,-5.968 3.519,-8.953 0.1,-0.253 0.121,-0.578 0.58,-0.651 0.014,0.642 0.041,1.265 0.041,1.888 0.002,56.038 0.002,112.076 0.002,168.114 0,0.525 0.016,1.051 -0.007,1.575 -0.017,0.391 -0.083,0.78 -0.136,1.245 -1.412,0.336 -2.764,0.657 -4.372,1.04 M 71.804,-5.36 v 2.494 c 0,67.705 0,135.409 0,203.113 0,0.409 0.042,0.823 -0.012,1.225 -0.068,0.509 -0.124,1.053 -0.343,1.506 -1.268,2.624 -2.58,5.229 -3.891,7.833 -0.091,0.181 -0.176,0.453 -0.57,0.386 -0.03,-0.19 -0.094,-0.402 -0.094,-0.615 0.005,-71.79 0.014,-143.579 0.03,-215.369 0,-0.158 0.112,-0.315 0.22,-0.602 1.466,-0.056 2.951,-0.102 4.66,0.029 m -7.113,-0.012 c 0.245,0.845 0.159,1.602 0.159,2.346 0.004,72.198 0.003,144.397 0.003,216.595 0,0.35 -0.025,0.703 0.004,1.05 0.056,0.674 -0.158,1.254 -0.515,1.811 -1.26,1.964 -2.505,3.937 -3.766,5.9 -0.078,0.122 -0.248,0.184 -0.499,0.362 -0.19,-0.78 -0.114,-1.466 -0.114,-2.139 -0.004,-74.474 -0.004,-148.949 -0.004,-223.424 0,-0.467 -0.012,-0.934 0.007,-1.4 0.014,-0.334 0.071,-0.667 0.121,-1.107 1.585,-0.087 3.07,-0.097 4.604,0.006 m -265.103,-69.832 c -0.076,-0.162 -0.152,-0.26 -0.166,-0.366 -0.032,-0.231 -0.044,-0.465 -0.044,-0.698 0.014,-21.308 0.031,-42.617 0.048,-63.926 0,-0.057 0.009,-0.121 0.036,-0.17 0.027,-0.048 0.081,-0.082 0.13,-0.128 1.546,-0.26 15.304,-0.245 16.785,0.036 0.183,0.709 0.104,1.465 0.104,2.211 0.005,19.091 0.004,38.182 0.004,57.273 0,1.518 0.016,3.036 0.004,4.554 -0.003,0.393 -0.084,0.787 -0.132,1.203 -0.29,0.068 -0.512,0.165 -0.735,0.166 -5.137,0.007 -10.275,0.007 -15.412,-0.003 -0.221,-10e-4 -0.442,-0.106 -0.622,-0.152 M 53.35,232.375 c -0.114,-0.039 -0.228,-0.078 -0.342,-0.117 v -2.063 c 0,-77.69 0,-155.38 0,-233.069 0,-0.467 -0.013,-0.935 0.007,-1.401 0.015,-0.334 0.074,-0.666 0.12,-1.057 1.126,-0.192 2.172,-0.083 3.21,-0.099 0.452,-0.007 0.905,0.055 1.419,0.09 0.26,0.93 0.159,1.804 0.159,2.663 0.005,75.53 0.005,151.06 0.005,226.59 0,0.467 -0.026,0.936 0.003,1.401 0.042,0.679 -0.191,1.236 -0.595,1.774 -1.156,1.54 -2.276,3.106 -3.419,4.656 -0.167,0.227 -0.377,0.422 -0.567,0.632 M 99.479,172.011 C 99.275,170.514 99.135,-0.456 99.324,-4.433 c 0.013,-0.28 0.096,-0.556 0.14,-0.804 1.765,-0.315 5.263,-0.273 6.483,0.078 0.229,0.773 0.116,1.594 0.116,2.4 0.006,57.265 0.006,114.53 0.006,171.795 0,0.525 0.018,1.052 -0.011,1.576 -0.018,0.336 -0.105,0.668 -0.171,1.055 -1.111,0.025 -2.157,0.053 -3.203,0.069 -1.041,0.016 -2.042,0.494 -3.205,0.275 m -53.263,69.043 c -0.081,-0.57 -0.139,-0.786 -0.138,-1.003 0.005,-81.616 0.015,-163.233 0.033,-244.85 0,-0.158 0.121,-0.317 0.212,-0.542 1.487,-0.157 2.981,-0.139 4.475,-0.012 0.441,0.754 0.261,1.53 0.261,2.27 0.008,78.815 0.008,157.629 0.008,236.444 0,0.467 0.033,0.938 -0.018,1.4 -0.037,0.333 -0.107,0.718 -0.303,0.969 -1.359,1.742 -2.744,3.464 -4.53,5.324 m 34.589,-54.477 c -0.104,-0.154 -0.216,-0.242 -0.216,-0.331 -0.009,-63.671 -0.01,-127.342 -0.004,-191.014 0,-0.159 0.105,-0.318 0.205,-0.604 1.12,-0.126 2.28,-0.087 3.431,-0.053 1.197,0.036 2.423,-0.229 3.641,0.22 v 183.719 c -2.388,2.729 -4.689,5.358 -7.057,8.063 m -102.398,77.166 c 0,-0.81 0,-1.565 0,-2.321 V 152.66 c 0,-0.35 0.02,-0.701 -0.004,-1.05 -0.053,-0.787 0.175,-1.464 0.589,-2.143 3.247,-5.336 6.738,-10.512 10.235,-15.684 0.142,-0.209 0.256,-0.543 0.725,-0.306 v 2.052 c 0,43.61 0,87.22 0,130.83 0,0.525 0.019,1.052 -0.01,1.576 -0.018,0.317 -0.11,0.631 -0.184,1.034 -4.201,-1.019 -7.869,-2.849 -11.351,-5.226 M 145.161,211.18 c -0.114,0.036 -0.227,0.072 -0.341,0.107 -0.278,-0.354 -0.57,-0.698 -0.833,-1.063 -1.635,-2.274 -3.199,-4.602 -4.92,-6.809 -0.952,-1.219 -1.32,-2.449 -1.319,-3.996 0.033,-67.409 0.029,-134.817 0.029,-202.226 0,-0.525 -0.022,-1.052 0.012,-1.575 0.021,-0.327 0.129,-0.649 0.215,-1.055 1.239,0 2.403,-0.032 3.565,0.008 1.146,0.04 2.314,-0.188 3.474,0.191 0.043,0.392 0.113,0.735 0.113,1.078 0.005,71.78 0.005,143.56 0.005,215.34 M 163.874,-5.351 c 0.333,0.919 0.2,1.797 0.2,2.653 0.007,79.921 0.006,159.842 0.006,239.762 0,0.526 0.01,1.052 -0.01,1.576 -0.009,0.264 0.079,0.601 -0.39,0.701 -0.317,-0.462 -0.652,-0.935 -0.971,-1.419 -1.602,-2.438 -3.21,-4.873 -4.798,-7.321 -1.465,-2.259 -1.213,-1.283 -1.213,-4.037 -0.006,-76.476 -0.005,-152.952 -0.005,-229.429 0,-0.467 -0.011,-0.934 0.007,-1.401 0.013,-0.334 0.066,-0.667 0.119,-1.173 2.401,0.041 4.705,-0.087 7.055,0.088 M 29.754,256.605 C 29.609,255.409 29.491,-2.791 29.629,-4.626 c 0.017,-0.222 0.111,-0.437 0.204,-0.789 2.099,-0.031 4.176,-0.039 6.277,0.001 0.363,0.824 0.239,1.591 0.239,2.333 0.005,84.125 0.005,168.251 0.005,252.376 0,0.409 -0.018,0.818 0,1.226 0.021,0.503 -0.145,0.903 -0.533,1.23 -1.873,1.579 -3.739,3.167 -5.614,4.744 -0.077,0.065 -0.215,0.055 -0.453,0.11 M 134.159,-5.22 c 0.042,0.247 0.131,0.524 0.131,0.801 -0.007,66.822 -0.021,133.643 -0.043,200.465 0,0.078 -0.131,0.157 -0.279,0.324 -0.335,-0.389 -0.675,-0.761 -0.99,-1.153 -2.594,-3.23 -5.132,-6.507 -7.803,-9.671 -0.999,-1.183 -1.445,-2.337 -1.444,-3.909 0.039,-61.512 0.033,-123.025 0.033,-184.537 0,-0.466 -0.014,-0.934 0.009,-1.4 0.016,-0.332 0.083,-0.662 0.123,-0.961 1.771,-0.263 8.875,-0.234 10.263,0.041 M 91.213,-48.758 c -0.174,-1.119 -0.088,-2.163 -0.101,-3.2 -0.014,-1.05 -0.003,-2.101 -0.003,-3.152 v -3.152 c 0,-1.05 -0.015,-2.101 0.004,-3.151 0.019,-1.033 -0.098,-2.077 0.114,-3.197 0.717,-0.025 1.346,-0.067 1.975,-0.067 7.647,-0.005 15.293,0.001 22.94,-0.01 0.62,-0.001 1.275,0.142 1.934,-0.225 0.142,-1.812 0.046,-3.614 0.063,-5.413 0.018,-1.809 0.004,-3.619 0.004,-5.428 v -5.254 -5.428 -5.429 -5.428 -5.253 -5.429 -5.428 -5.429 -5.428 -5.253 c 0,-1.81 -0.013,-3.62 0.004,-5.429 0.017,-1.797 -0.079,-3.599 0.068,-5.461 0.477,-0.064 0.871,-0.163 1.265,-0.164 5.429,-0.01 10.857,-0.01 16.286,0.003 0.384,0 0.768,0.124 1.252,0.208 0,0.782 0,1.477 0,2.172 0,29.069 0,58.137 0,87.205 0,0.409 0.018,0.819 -0.009,1.226 -0.022,0.33 -0.099,0.657 -0.146,0.953 -1.466,0.176 -43.412,0.218 -45.65,0.041 M 24.4,-5.239 c 0.18,1.895 0.145,264.496 -0.037,265.983 -2.333,1.644 -4.88,3.052 -7.473,4.382 -0.293,0.151 -0.632,0.211 -1.107,0.364 -0.016,-0.776 -0.041,-1.406 -0.041,-2.037 C 15.74,197.085 15.739,130.717 15.75,64.35 c 0,-1.691 0.094,-3.385 0.225,-5.07 0.351,-4.489 0.287,-8.978 0.078,-13.468 -0.108,-2.33 -0.29,-4.66 -0.299,-6.991 C 15.72,29.482 15.74,20.143 15.74,10.803 c 0,-4.728 -0.004,-9.456 0.006,-14.184 10e-4,-0.626 -0.107,-1.275 0.166,-1.852 1.459,-0.271 6.874,-0.28 8.488,-0.006 m -170.531,-135.23 c 0.23,0.637 0.137,1.339 0.137,2.023 0.006,11.793 -0.002,23.585 0.015,35.378 0.002,1.044 0.048,2.112 0.264,3.129 1.252,5.906 7.807,10.19 14.29,7.043 3.717,-1.804 5.687,-4.943 5.779,-9.105 0.075,-3.384 -0.003,-6.771 -0.009,-10.157 -0.019,-8.932 -0.038,-17.864 -0.049,-26.796 0,-0.509 0.064,-1.019 0.102,-1.58 0.312,-0.052 0.533,-0.12 0.753,-0.12 5.137,-0.007 10.275,-0.009 15.412,0.003 0.266,0.001 0.532,0.133 0.874,0.225 0,0.76 0,1.458 0,2.156 0,11.675 -0.004,23.351 0.003,35.027 0.001,2.279 -0.057,4.552 -0.387,6.811 -0.534,3.658 -1.425,7.206 -3.154,10.506 -1.288,2.457 -2.918,4.641 -5.05,6.431 -2.989,2.509 -6.419,3.909 -10.307,4.379 -5.335,0.644 -10.198,-0.487 -14.652,-3.451 -2.406,-1.602 -4.41,-3.63 -6.165,-5.913 -0.353,-0.46 -0.702,-0.922 -1.18,-1.55 -1.118,1.837 -2.237,3.532 -3.66,4.991 -1.391,1.427 -2.907,2.698 -4.64,3.698 -1.791,1.033 -3.73,1.67 -5.751,2.009 -2.015,0.338 -4.055,0.55 -6.104,0.357 -1.981,-0.187 -3.924,-0.573 -5.768,-1.353 -1.881,-0.794 -3.661,-1.751 -5.156,-3.117 0.85,-1.909 6.287,-11.62 6.985,-12.484 0.375,-0.029 0.783,-0.045 1.186,-0.092 2.331,-0.276 4.388,-1.156 6.081,-2.807 2.065,-2.014 3.137,-4.453 3.135,-7.354 -0.005,-5.838 0,-11.676 0,-17.514 0.001,-6.304 -0.002,-12.609 0.004,-18.914 0.001,-0.628 -0.081,-1.271 0.12,-1.852 1.527,-0.275 15.289,-0.279 16.892,-0.007 m 214.014,0.129 c 0.282,1.633 0.41,47.885 0.172,63.896 -0.006,0.451 -0.069,0.902 -0.111,1.406 -0.302,0.048 -0.523,0.114 -0.744,0.114 -5.138,0.006 -10.275,0.008 -15.413,-0.002 -0.268,0 -0.537,-0.113 -0.89,-0.193 0,-0.652 0,-1.23 0,-1.809 -10e-4,-1.868 0.003,-3.737 -0.008,-5.605 -0.001,-0.265 0.085,-0.598 -0.303,-0.707 -0.055,0.032 -0.113,0.052 -0.151,0.092 -0.28,0.296 -0.563,0.589 -0.832,0.895 -4.646,5.283 -10.543,7.965 -17.514,8.343 -6.513,0.353 -12.624,-1.083 -18.322,-4.274 -12.234,-6.851 -20.106,-21.142 -16.715,-36.574 2.658,-12.1 10.053,-20.445 21.683,-24.87 5.114,-1.946 10.445,-2.404 15.854,-1.689 3.87,0.512 7.467,1.827 10.666,4.119 0.311,0.223 0.556,0.538 0.805,0.784 -1.925,3.934 -5.9,10.809 -6.798,11.747 -1.923,-0.853 -3.976,-1.262 -6.088,-1.321 -4.895,-0.138 -9.206,1.446 -12.817,4.713 -5.23,4.733 -7.197,10.597 -5.728,17.553 1.983,9.394 12.677,16.62 23.358,13.274 7.904,-2.477 13.008,-9.791 12.933,-17.455 -0.098,-10.099 -0.024,-20.2 -0.023,-30.3 v -2.164 c 0.491,-0.079 0.88,-0.185 1.273,-0.199 6.25,-0.215 14.384,-0.092 15.713,0.226 m -109.232,56.778 c -0.584,0.632 -0.905,0.967 -1.212,1.315 -4.647,5.282 -10.546,7.96 -17.515,8.337 -6.451,0.349 -12.507,-1.062 -18.168,-4.191 -11.658,-6.443 -19.552,-19.837 -17.224,-34.951 1.676,-10.885 9.17,-21.947 22.043,-26.593 5.147,-1.858 10.451,-2.384 15.859,-1.672 3.749,0.493 7.246,1.752 10.38,3.917 0.373,0.258 0.705,0.574 1.029,0.841 -0.483,1.344 -5.465,10.292 -6.602,11.872 -0.355,-0.113 -0.739,-0.218 -1.11,-0.357 -1.658,-0.621 -3.384,-0.903 -5.139,-0.943 -5.573,-0.128 -10.299,1.899 -14.063,5.948 -4.716,5.075 -6.069,11.033 -4.082,17.686 2.482,8.308 11.655,13.858 19.928,12.553 6.607,-1.043 11.395,-4.505 14.343,-10.489 1.208,-2.451 1.647,-5.08 1.643,-7.807 -0.018,-10.042 -0.007,-20.083 -0.007,-30.125 v -1.981 c 0.581,-0.474 1.126,-0.361 1.641,-0.369 9.107,-0.134 14.217,-0.05 15.358,0.245 0.039,0.11 0.108,0.218 0.112,0.329 0.022,0.583 0.037,1.167 0.037,1.75 -0.018,20.957 -0.038,41.914 -0.059,62.871 0,0.057 -0.015,0.119 -0.041,0.169 -0.026,0.049 -0.076,0.086 -0.19,0.206 -0.142,0.02 -0.364,0.078 -0.586,0.078 -5.137,0.005 -10.275,0.007 -15.412,-0.005 -0.266,-0.001 -0.532,-0.131 -0.803,-0.202 -0.162,-2.742 0.063,-5.413 -0.16,-8.432 m -251.33,-57.09 c 0.785,-0.025 1.359,-0.059 1.934,-0.059 3.911,-0.005 7.823,-0.004 11.734,-0.003 8.057,0.003 16.114,-0.019 24.171,0.02 5.053,0.024 9.992,0.841 14.774,2.488 5.201,1.793 9.87,4.486 13.748,8.44 3.096,3.158 5.159,6.882 6.094,11.229 0.734,3.416 0.76,6.84 0.187,10.265 -0.911,5.45 -3.398,10.029 -7.787,13.462 -1.281,1.002 -2.658,1.906 -4.078,2.7 -3.13,1.751 -6.53,2.796 -10.027,3.525 -4.588,0.956 -9.238,1.309 -13.914,1.368 -2.218,0.029 -4.433,0.02 -6.635,0.383 -2.493,0.411 -4.889,1.072 -7.092,2.36 -2.74,1.602 -4.438,3.922 -4.9,7.077 -0.585,3.999 0.631,7.912 4.64,10.348 1.454,0.884 2.989,1.579 4.63,2.033 2.601,0.72 5.254,1.068 7.952,1.069 4.145,0.002 8.291,0.003 12.436,0.003 7.706,0 15.413,-0.003 23.119,0.005 0.626,10e-4 1.271,-0.095 1.821,0.112 0.093,0.2 0.17,0.299 0.181,0.405 0.031,0.289 0.048,0.581 0.047,0.872 -0.013,4.611 -0.031,9.222 -0.05,13.833 0,0.054 -0.024,0.113 -0.052,0.16 -0.03,0.049 -0.078,0.087 -0.22,0.237 -0.524,0.015 -1.155,0.047 -1.786,0.047 -11.209,0.003 -22.419,0.003 -33.628,0.002 -2.335,0 -4.663,-0.051 -6.992,-0.304 -4.436,-0.482 -8.734,-1.466 -12.857,-3.181 -3.639,-1.514 -6.987,-3.495 -9.887,-6.191 -3.378,-3.142 -5.714,-6.914 -6.794,-11.414 -0.74,-3.09 -0.899,-6.219 -0.559,-9.388 0.508,-4.724 2.201,-8.921 5.335,-12.511 2.694,-3.086 5.961,-5.392 9.698,-7.04 4.864,-2.145 10.004,-3.124 15.271,-3.482 2.503,-0.17 5.015,-0.205 7.524,-0.269 2.399,-0.06 4.776,-0.288 7.116,-0.824 2.285,-0.523 4.473,-1.288 6.477,-2.55 5.484,-3.454 5.544,-11.877 -0.025,-15.336 -1.552,-0.964 -3.2,-1.676 -4.959,-2.135 -2.953,-0.77 -5.961,-1.098 -9.009,-1.098 -4.496,0 -8.991,-0.004 -13.487,-0.005 -7.356,-0.001 -14.712,0.003 -22.068,-0.006 -0.626,-0.001 -1.273,0.108 -1.932,-0.163 -0.054,-0.249 -0.144,-0.468 -0.144,-0.688 -0.008,-5.189 -0.007,-10.377 -0.007,-15.796 m 0.105,410.394 c -0.053,-0.364 -0.113,-0.588 -0.113,-0.812 -10e-4,-81.55 0.002,-163.1 0.012,-244.651 0,-0.088 0.108,-0.176 0.213,-0.337 0.473,0.27 0.667,0.766 0.943,1.177 5.39,8.049 10.708,16.147 16.179,24.141 6.329,9.25 12.922,18.312 19.999,27.012 2.874,3.533 5.813,7.015 9.098,10.177 1.427,1.373 2.961,2.639 4.502,3.885 1.048,0.847 2.264,1.42 3.58,1.777 5.782,1.569 11.319,1.013 16.605,-1.853 2.585,-1.402 4.877,-3.194 6.983,-5.233 2.78,-2.691 5.166,-5.709 7.341,-8.9 2.932,-4.3 5.44,-8.843 7.72,-13.515 0.998,-2.045 1.944,-4.116 2.993,-6.133 6.056,-11.659 13.523,-22.356 22.115,-32.278 4.478,-5.171 9.288,-10.013 14.546,-14.398 4.676,-3.898 9.632,-7.381 15.09,-10.113 5.37,-2.687 10.979,-4.518 17.015,-4.957 3.119,-0.227 6.182,0.039 9.216,0.685 5.169,1.101 9.761,3.452 13.951,6.629 2.896,2.196 5.483,4.72 7.86,7.462 3.919,4.519 7.168,9.498 10.041,14.728 0.503,0.916 0.893,1.901 1.26,2.882 1.715,4.579 2.495,9.346 2.742,14.206 0.428,8.402 -0.624,16.655 -2.611,24.805 -2.315,9.501 -5.759,18.596 -9.899,27.44 -5.355,11.445 -11.799,22.262 -18.838,32.739 -2.114,3.148 -4.217,6.307 -6.209,9.533 -7.824,12.669 -14.086,26.054 -18.323,40.355 -2.963,9.999 -4.802,20.2 -5.318,30.618 -0.335,6.773 -0.071,13.531 0.878,20.26 0.808,5.735 2.06,11.358 3.916,16.844 1.859,5.495 4.249,10.738 7.47,15.578 2.509,3.768 5.417,7.169 9.165,9.781 0.114,0.08 0.159,0.259 0.239,0.396 -0.159,0.079 -0.256,0.17 -0.352,0.17 -56.332,0.012 -112.664,0.018 -168.996,0.02 -0.287,0 -0.574,-0.066 -1.013,-0.12" /></g><g
           transform="translate(69.2817,632.4372)"
           id="g24"><path
             id="path26"
             style="fill:#953993;fill-opacity:1;fill-rule:nonzero;stroke:none"
             d="M 0,0 C 0.439,0.054 0.726,0.12 1.013,0.12 57.345,0.119 113.677,0.113 170.009,0.101 c 0.096,0 0.193,-0.091 0.352,-0.171 -0.08,-0.137 -0.125,-0.316 -0.239,-0.395 -3.748,-2.613 -6.656,-6.014 -9.165,-9.782 -3.221,-4.839 -5.611,-10.083 -7.47,-15.577 -1.856,-5.486 -3.108,-11.109 -3.916,-16.844 -0.949,-6.73 -1.213,-13.487 -0.878,-20.261 0.516,-10.418 2.355,-20.619 5.318,-30.618 4.237,-14.3 10.499,-27.685 18.323,-40.354 1.992,-3.226 4.095,-6.386 6.209,-9.534 7.039,-10.477 13.483,-21.294 18.839,-32.739 4.139,-8.844 7.583,-17.938 9.898,-27.44 1.987,-8.15 3.039,-16.403 2.611,-24.805 -0.247,-4.859 -1.027,-9.627 -2.741,-14.205 -0.368,-0.982 -0.758,-1.967 -1.261,-2.883 -2.873,-5.23 -6.122,-10.208 -10.041,-14.727 -2.377,-2.743 -4.963,-5.267 -7.86,-7.463 -4.19,-3.176 -8.782,-5.528 -13.951,-6.629 -3.034,-0.645 -6.097,-0.912 -9.216,-0.685 -6.036,0.439 -11.645,2.27 -17.015,4.958 -5.458,2.731 -10.414,6.214 -15.089,10.112 -5.259,4.385 -10.069,9.227 -14.547,14.399 -8.592,9.921 -16.059,20.618 -22.115,32.277 -1.049,2.018 -1.995,4.088 -2.993,6.133 -2.28,4.673 -4.788,9.215 -7.72,13.515 -2.175,3.191 -4.561,6.209 -7.341,8.9 -2.106,2.039 -4.398,3.831 -6.983,5.233 -5.286,2.867 -10.823,3.423 -16.605,1.853 -1.316,-0.357 -2.532,-0.929 -3.58,-1.777 -1.541,-1.246 -3.075,-2.512 -4.502,-3.885 -3.285,-3.162 -6.224,-6.644 -9.098,-10.177 -7.077,-8.7 -13.67,-17.762 -19.999,-27.012 -5.471,-7.994 -10.789,-16.092 -16.179,-24.141 -0.276,-0.411 -0.47,-0.907 -0.943,-1.177 -0.105,0.161 -0.213,0.249 -0.213,0.338 -0.01,81.55 -0.013,163.1 -0.012,244.651 0,0.223 0.061,0.447 0.113,0.811" /></g><g
           transform="translate(69.1772,222.0431)"
           id="g28"><path
             id="path30"
             style="fill:#373535;fill-opacity:1;fill-rule:nonzero;stroke:none"
             d="m 0,0 c 0,5.419 -0.002,10.608 0.006,15.796 0,0.22 0.09,0.44 0.145,0.688 0.658,0.272 1.306,0.163 1.931,0.163 7.357,0.01 14.713,0.006 22.069,0.006 4.495,0.001 8.991,0.005 13.486,0.005 3.048,0 6.057,0.329 9.009,1.098 1.76,0.459 3.407,1.171 4.959,2.135 5.57,3.46 5.509,11.883 0.025,15.336 -2.004,1.262 -4.192,2.027 -6.477,2.55 -2.34,0.536 -4.717,0.764 -7.116,0.825 -2.508,0.063 -5.021,0.098 -7.523,0.268 -5.268,0.358 -10.407,1.337 -15.272,3.482 -3.737,1.648 -7.004,3.954 -9.697,7.04 -3.134,3.59 -4.827,7.788 -5.335,12.511 -0.341,3.17 -0.182,6.299 0.559,9.388 1.079,4.501 3.416,8.273 6.794,11.414 2.899,2.696 6.248,4.678 9.887,6.191 4.122,1.716 8.421,2.699 12.856,3.182 2.33,0.253 4.657,0.304 6.992,0.304 11.21,0 22.419,10e-4 33.629,-0.002 0.631,-10e-4 1.262,-0.033 1.785,-0.047 0.142,-0.151 0.191,-0.188 0.22,-0.237 0.029,-0.047 0.053,-0.106 0.053,-0.16 0.019,-4.611 0.036,-9.222 0.05,-13.834 0.001,-0.29 -0.016,-0.582 -0.047,-0.872 -0.012,-0.105 -0.089,-0.204 -0.181,-0.405 -0.55,-0.206 -1.195,-0.111 -1.821,-0.112 -7.707,-0.007 -15.413,-0.004 -23.12,-0.005 -4.145,0 -8.29,-0.001 -12.435,-0.002 -2.699,-0.001 -5.351,-0.35 -7.953,-1.07 -1.64,-0.454 -3.175,-1.149 -4.629,-2.032 -4.009,-2.437 -5.225,-6.35 -4.64,-10.348 0.462,-3.155 2.16,-5.476 4.9,-7.078 2.202,-1.287 4.599,-1.949 7.092,-2.36 2.201,-0.363 4.416,-0.354 6.634,-0.382 4.676,-0.06 9.327,-0.413 13.914,-1.369 3.497,-0.729 6.897,-1.774 10.028,-3.524 1.419,-0.794 2.796,-1.699 4.077,-2.701 4.389,-3.433 6.876,-8.012 7.788,-13.461 0.573,-3.426 0.547,-6.85 -0.188,-10.266 C 71.52,17.768 69.457,14.044 66.36,10.886 62.483,6.932 57.814,4.239 52.612,2.447 47.831,0.799 42.891,-0.017 37.838,-0.042 29.782,-0.081 21.725,-0.059 13.668,-0.061 9.756,-0.062 5.845,-0.064 1.933,-0.059 1.359,-0.058 0.785,-0.025 0,0" /></g><g
           transform="translate(320.5067,279.1332)"
           id="g32"><path
             id="path34"
             style="fill:#373535;fill-opacity:1;fill-rule:nonzero;stroke:none"
             d="M 0,0 C 0.223,3.019 -0.002,5.69 0.16,8.432 0.431,8.503 0.697,8.634 0.963,8.634 6.1,8.647 11.238,8.645 16.375,8.64 c 0.222,0 0.444,-0.058 0.586,-0.078 0.114,-0.121 0.164,-0.157 0.19,-0.206 0.026,-0.05 0.041,-0.113 0.041,-0.169 0.021,-20.957 0.041,-41.915 0.059,-62.872 0,-0.583 -0.015,-1.167 -0.037,-1.75 -0.004,-0.111 -0.073,-0.219 -0.113,-0.328 -1.14,-0.295 -6.25,-0.379 -15.357,-0.245 -0.515,0.007 -1.06,-0.105 -1.641,0.368 v 1.982 c 0,10.041 -0.011,20.082 0.007,30.124 0.004,2.728 -0.435,5.357 -1.643,7.807 -2.948,5.985 -7.736,9.447 -14.343,10.489 -8.273,1.305 -17.446,-4.244 -19.928,-12.552 -1.987,-6.653 -0.634,-12.611 4.082,-17.686 3.764,-4.05 8.49,-6.077 14.063,-5.949 1.755,0.04 3.481,0.323 5.139,0.944 0.371,0.139 0.755,0.244 1.11,0.357 1.137,-1.58 6.119,-10.528 6.602,-11.872 -0.325,-0.268 -0.657,-0.584 -1.029,-0.842 -3.134,-2.165 -6.631,-3.423 -10.38,-3.917 -5.408,-0.712 -10.712,-0.186 -15.859,1.672 -12.873,4.646 -20.367,15.709 -22.043,26.593 -2.328,15.114 5.566,28.509 17.224,34.951 5.661,3.129 11.717,4.541 18.168,4.192 C -11.758,9.276 -5.86,6.597 -1.212,1.316 -0.905,0.967 -0.584,0.633 0,0" /></g><g
           transform="translate(429.7384,222.3553)"
           id="g36"><path
             id="path38"
             style="fill:#373535;fill-opacity:1;fill-rule:nonzero;stroke:none"
             d="m 0,0 c -1.329,-0.318 -9.462,-0.44 -15.713,-0.226 -0.393,0.014 -0.782,0.12 -1.273,0.199 v 2.164 c 0,10.1 -0.075,20.201 0.024,30.301 0.074,7.663 -5.03,14.978 -12.934,17.454 -10.68,3.347 -21.374,-3.88 -23.358,-13.273 -1.469,-6.957 0.499,-12.821 5.728,-17.554 3.611,-3.267 7.923,-4.851 12.817,-4.713 2.113,0.06 4.165,0.469 6.088,1.321 0.898,-0.938 4.873,-7.813 6.798,-11.747 -0.248,-0.246 -0.494,-0.561 -0.805,-0.784 -3.198,-2.292 -6.796,-3.607 -10.666,-4.119 -5.408,-0.715 -10.739,-0.257 -15.853,1.689 -11.631,4.425 -19.025,12.771 -21.684,24.871 -3.391,15.431 4.482,29.722 16.715,36.573 5.698,3.192 11.809,4.628 18.322,4.274 6.971,-0.378 12.868,-3.059 17.514,-8.343 0.269,-0.306 0.552,-0.599 0.832,-0.895 0.038,-0.04 0.096,-0.059 0.151,-0.092 0.388,0.109 0.302,0.442 0.304,0.707 0.01,1.868 0.006,3.737 0.007,5.605 0,0.579 0,1.157 0,1.809 0.354,0.08 0.622,0.193 0.89,0.194 5.138,0.009 10.276,0.007 15.413,10e-4 0.221,0 0.442,-0.066 0.745,-0.114 C 0.103,64.798 0.166,64.347 0.173,63.896 0.411,47.885 0.282,1.633 0,0" /></g><g
           transform="translate(215.725,222.2265)"
           id="g40"><path
             id="path42"
             style="fill:#373535;fill-opacity:1;fill-rule:nonzero;stroke:none"
             d="m 0,0 c -1.604,-0.272 -15.366,-0.268 -16.892,0.007 -0.201,0.581 -0.119,1.225 -0.12,1.852 -0.007,6.305 -0.004,12.61 -0.004,18.915 0,5.837 -0.005,11.675 0,17.513 0.002,2.902 -1.07,5.34 -3.135,7.354 -1.694,1.651 -3.75,2.532 -6.081,2.807 -0.404,0.047 -0.811,0.063 -1.186,0.092 -0.698,0.865 -6.136,10.575 -6.986,12.484 1.496,1.366 3.276,2.323 5.156,3.117 1.845,0.78 3.788,1.166 5.769,1.353 2.049,0.193 4.089,-0.019 6.103,-0.357 2.021,-0.338 3.961,-0.976 5.752,-2.009 1.733,-1 3.248,-2.271 4.64,-3.698 1.422,-1.459 2.542,-3.154 3.66,-4.991 0.478,0.628 0.827,1.09 1.18,1.55 1.755,2.283 3.759,4.311 6.165,5.913 4.454,2.964 9.316,4.096 14.652,3.451 3.888,-0.47 7.318,-1.87 10.307,-4.379 2.132,-1.79 3.762,-3.974 5.05,-6.431 1.729,-3.3 2.62,-6.848 3.154,-10.506 0.33,-2.259 0.388,-4.532 0.387,-6.811 C 37.563,25.55 37.567,13.874 37.567,2.199 c 0,-0.698 0,-1.396 0,-2.156 -0.341,-0.091 -0.607,-0.224 -0.873,-0.225 -5.138,-0.012 -10.275,-0.01 -15.412,-0.003 -0.221,0 -0.441,0.068 -0.753,0.12 -0.038,0.561 -0.103,1.071 -0.102,1.58 0.011,8.932 0.03,17.864 0.048,26.796 0.007,3.386 0.084,6.773 0.009,10.157 -0.092,4.162 -2.061,7.301 -5.778,9.105 C 8.223,50.72 1.668,46.436 0.416,40.53 0.2,39.514 0.154,38.446 0.152,37.401 0.135,25.608 0.143,13.816 0.137,2.023 0.136,1.339 0.23,0.637 0,0" /></g><g
           transform="translate(386.256,357.4564)"
           id="g44"><path
             id="path46"
             style="fill:#373535;fill-opacity:1;fill-rule:nonzero;stroke:none"
             d="m 0,0 c -1.614,-0.274 -7.029,-0.265 -8.488,0.006 -0.273,0.577 -0.165,1.226 -0.167,1.852 -0.01,4.728 -0.005,9.456 -0.005,14.184 0,9.34 -0.02,18.679 0.014,28.018 0.009,2.331 0.191,4.661 0.299,6.991 0.209,4.491 0.273,8.979 -0.078,13.468 -0.132,1.686 -0.225,3.38 -0.226,5.07 -0.011,66.368 -0.009,132.735 -0.007,199.103 0,0.631 0.024,1.261 0.041,2.037 0.475,-0.153 0.814,-0.213 1.107,-0.364 2.593,-1.33 5.14,-2.738 7.473,-4.382 C 0.145,264.496 0.179,1.895 0,0" /></g><g
           transform="translate(453.0689,313.9378)"
           id="g48"><path
             id="path50"
             style="fill:#373535;fill-opacity:1;fill-rule:nonzero;stroke:none"
             d="m 0,0 c 2.238,0.176 44.184,0.135 45.65,-0.041 0.047,-0.297 0.124,-0.623 0.146,-0.954 0.026,-0.406 0.009,-0.816 0.009,-1.225 0,-29.068 0,-58.137 0,-87.205 0,-0.695 0,-1.391 0,-2.173 -0.485,-0.084 -0.868,-0.207 -1.252,-0.208 -5.429,-0.013 -10.857,-0.012 -16.286,-0.002 -0.394,0 -0.788,0.099 -1.265,0.164 -0.147,1.862 -0.051,3.664 -0.068,5.461 -0.018,1.809 -0.004,3.619 -0.004,5.428 v 5.254 5.428 5.428 5.429 5.428 5.254 5.428 5.428 5.429 5.253 c 0,1.81 0.013,3.619 -0.004,5.429 -0.017,1.798 0.079,3.601 -0.063,5.413 -0.66,0.367 -1.314,0.223 -1.935,0.224 -7.646,0.012 -15.293,0.006 -22.939,0.011 -0.629,0 -1.259,0.041 -1.975,0.067 -0.212,1.119 -0.095,2.163 -0.114,3.196 -0.02,1.051 -0.004,2.101 -0.004,3.152 v 3.152 c 0,1.051 -0.011,2.102 0.003,3.152 C -0.088,-2.163 -0.174,-1.119 0,0" /></g><g
           transform="translate(496.015,357.4754)"
           id="g52"><path
             id="path54"
             style="fill:#373535;fill-opacity:1;fill-rule:nonzero;stroke:none"
             d="m 0,0 c -1.388,-0.275 -8.493,-0.304 -10.263,-0.041 -0.04,0.299 -0.108,0.629 -0.124,0.961 -0.022,0.466 -0.008,0.934 -0.008,1.401 0,61.512 0.006,123.024 -0.034,184.536 -10e-4,1.572 0.446,2.726 1.445,3.909 2.671,3.164 5.208,6.442 7.803,9.671 0.315,0.392 0.655,0.764 0.989,1.153 0.149,-0.167 0.28,-0.246 0.28,-0.324 C 0.11,134.444 0.123,67.623 0.131,0.801 0.131,0.524 0.042,0.247 0,0" /></g><g
           transform="translate(391.6093,619.3005)"
           id="g56"><path
             id="path58"
             style="fill:#373535;fill-opacity:1;fill-rule:nonzero;stroke:none"
             d="m 0,0 c 0.238,-0.055 0.377,-0.045 0.454,-0.11 1.874,-1.577 3.741,-3.165 5.613,-4.744 0.388,-0.327 0.555,-0.727 0.533,-1.23 -0.017,-0.408 0,-0.817 0,-1.226 0,-84.125 0.001,-168.251 -0.005,-252.376 0,-0.742 0.124,-1.509 -0.239,-2.333 -2.101,-0.04 -4.178,-0.032 -6.277,-10e-4 -0.093,0.352 -0.187,0.567 -0.204,0.789 C -0.263,-259.396 -0.145,-1.196 0,0" /></g><g
           transform="translate(377.7677,619.3005)"
           id="g60"><path
             id="path62"
             style="fill:#373535;fill-opacity:1;fill-rule:nonzero;stroke:none"
             d="m 0,0 c 0.238,-0.055 0.377,-0.045 0.454,-0.11 1.874,-1.577 3.741,-3.165 5.614,-4.744 0.387,-0.327 0.554,-0.727 0.532,-1.23 -0.017,-0.408 0,-0.817 0,-1.226 0,-84.125 0.001,-168.251 -0.005,-252.376 0,-0.742 0.124,-1.509 -0.239,-2.333 -2.101,-0.04 -4.178,-0.032 -6.277,-10e-4 -0.093,0.352 -0.187,0.567 -0.204,0.789 C -0.263,-259.396 -0.145,-1.196 0,0" /></g><g
           transform="translate(525.7294,357.3446)"
           id="g64"><path
             id="path66"
             style="fill:#373535;fill-opacity:1;fill-rule:nonzero;stroke:none"
             d="m 0,0 c -2.35,-0.175 -4.654,-0.047 -7.055,-0.088 -0.053,0.506 -0.106,0.839 -0.119,1.173 -0.018,0.467 -0.006,0.934 -0.006,1.401 -0.001,76.476 -0.002,152.953 0.004,229.429 0,2.753 -0.251,1.778 1.214,4.037 1.587,2.448 3.195,4.883 4.798,7.321 0.318,0.484 0.654,0.957 0.97,1.418 0.469,-0.099 0.381,-0.436 0.391,-0.7 0.019,-0.524 0.009,-1.05 0.009,-1.576 C 0.206,162.495 0.207,82.574 0.2,2.653 0.2,1.797 0.333,0.919 0,0" /></g><g
           transform="translate(507.0167,573.876)"
           id="g68"><path
             id="path70"
             style="fill:#373535;fill-opacity:1;fill-rule:nonzero;stroke:none"
             d="m 0,0 c 0,-71.78 0,-143.56 -0.005,-215.34 0,-0.344 -0.07,-0.687 -0.113,-1.078 -1.16,-0.38 -2.328,-0.152 -3.474,-0.191 -1.162,-0.04 -2.326,-0.009 -3.565,-0.009 -0.086,0.406 -0.194,0.728 -0.215,1.056 -0.034,0.523 -0.012,1.05 -0.012,1.575 0,67.408 0.004,134.817 -0.029,202.225 -10e-4,1.547 0.367,2.777 1.319,3.997 1.721,2.206 3.285,4.535 4.92,6.808 0.263,0.366 0.555,0.71 0.833,1.064 C -0.227,0.071 -0.114,0.036 0,0" /></g><g
           transform="translate(340.2623,626.4382)"
           id="g72"><path
             id="path74"
             style="fill:#373535;fill-opacity:1;fill-rule:nonzero;stroke:none"
             d="m 0,0 c 3.482,2.377 7.151,4.207 11.351,5.226 0.075,-0.403 0.167,-0.716 0.184,-1.034 0.029,-0.524 0.01,-1.05 0.01,-1.576 10e-4,-43.61 10e-4,-87.219 10e-4,-130.829 v -2.053 c -0.47,-0.237 -0.584,0.097 -0.725,0.306 -3.498,5.172 -6.989,10.348 -10.236,15.684 -0.413,0.68 -0.642,1.357 -0.589,2.143 0.024,0.349 0.004,0.7 0.004,1.051 L 0,-2.32 C 0,-1.565 0,-0.809 0,0" /></g><g
           transform="translate(442.6608,549.2729)"
           id="g76"><path
             id="path78"
             style="fill:#373535;fill-opacity:1;fill-rule:nonzero;stroke:none"
             d="m 0,0 c 2.368,-2.706 4.669,-5.334 7.057,-8.063 v -183.72 c -1.218,-0.448 -2.444,-0.183 -3.641,-0.219 -1.151,-0.034 -2.311,-0.073 -3.431,0.052 -0.1,0.286 -0.205,0.446 -0.205,0.605 -0.006,63.671 -0.005,127.343 0.004,191.014 0,0.088 0.112,0.177 0.216,0.331" /></g><g
           transform="translate(408.0722,603.7499)"
           id="g80"><path
             id="path82"
             style="fill:#373535;fill-opacity:1;fill-rule:nonzero;stroke:none"
             d="m 0,0 c 1.786,-1.86 3.17,-3.583 4.53,-5.324 0.196,-0.252 0.265,-0.636 0.302,-0.97 0.052,-0.461 0.018,-0.932 0.018,-1.399 0,-78.815 0.001,-157.63 -0.007,-236.445 -0.001,-0.74 0.18,-1.516 -0.261,-2.27 -1.494,-0.127 -2.988,-0.144 -4.476,0.013 -0.091,0.224 -0.212,0.383 -0.212,0.542 -0.018,81.617 -0.027,163.233 -0.033,244.85 0,0.216 0.058,0.433 0.139,1.003" /></g><g
           transform="translate(461.3346,534.7067)"
           id="g84"><path
             id="path86"
             style="fill:#373535;fill-opacity:1;fill-rule:nonzero;stroke:none"
             d="m 0,0 c 1.163,0.219 2.164,-0.259 3.206,-0.275 1.045,-0.016 2.091,-0.044 3.202,-0.069 0.066,-0.388 0.153,-0.72 0.171,-1.055 0.029,-0.524 0.011,-1.051 0.011,-1.576 0,-57.265 0,-114.53 -0.006,-171.795 0,-0.807 0.113,-1.627 -0.116,-2.4 -1.219,-0.351 -4.718,-0.394 -6.483,-0.078 -0.044,0.248 -0.126,0.524 -0.14,0.804 C -0.344,-172.467 -0.204,-1.498 0,0" /></g><g
           transform="translate(415.2053,595.0703)"
           id="g88"><path
             id="path90"
             style="fill:#373535;fill-opacity:1;fill-rule:nonzero;stroke:none"
             d="M 0,0 C 0.19,-0.21 0.401,-0.405 0.568,-0.632 1.71,-2.182 2.831,-3.748 3.987,-5.288 4.391,-5.826 4.624,-6.383 4.582,-7.062 4.553,-7.527 4.578,-7.996 4.578,-8.463 c 0,-75.53 0,-151.06 -0.005,-226.589 0,-0.859 0.101,-1.734 -0.159,-2.664 -0.513,-0.034 -0.967,-0.096 -1.419,-0.09 -1.037,0.016 -2.083,-0.092 -3.21,0.099 -0.046,0.391 -0.105,0.723 -0.119,1.057 -0.02,0.466 -0.007,0.934 -0.007,1.401 -0.001,77.69 -0.001,155.379 -0.001,233.069 v 2.063 C -0.228,-0.078 -0.114,-0.039 0,0" /></g><g
           transform="translate(161.4435,287.4915)"
           id="g92"><path
             id="path94"
             style="fill:#953993;fill-opacity:1;fill-rule:nonzero;stroke:none"
             d="m 0,0 c 0.18,0.046 0.401,0.151 0.622,0.152 5.138,0.01 10.275,0.011 15.413,0.003 0.222,0 0.445,-0.098 0.734,-0.166 0.048,-0.416 0.129,-0.809 0.132,-1.203 0.012,-1.518 -0.003,-3.036 -0.004,-4.554 0,-19.091 0.001,-38.182 -0.004,-57.273 0,-0.746 0.079,-1.502 -0.104,-2.211 -1.481,-0.281 -15.238,-0.296 -16.785,-0.036 -0.048,0.046 -0.103,0.08 -0.13,0.128 -0.026,0.049 -0.036,0.113 -0.036,0.17 -0.017,21.309 -0.033,42.618 -0.048,63.926 0,0.233 0.012,0.467 0.044,0.698 C -0.151,-0.26 -0.076,-0.162 0,0" /></g><g
           transform="translate(426.5471,357.3233)"
           id="g96"><path
             id="path98"
             style="fill:#373535;fill-opacity:1;fill-rule:nonzero;stroke:none"
             d="m 0,0 c -1.535,-0.103 -3.02,-0.093 -4.604,-0.006 -0.05,0.44 -0.107,0.773 -0.121,1.107 -0.019,0.466 -0.007,0.934 -0.007,1.4 0,74.475 0,148.95 0.004,223.425 0,0.672 -0.077,1.358 0.114,2.138 0.251,-0.177 0.42,-0.24 0.498,-0.361 1.261,-1.963 2.506,-3.937 3.766,-5.901 0.358,-0.557 0.571,-1.137 0.516,-1.81 -0.029,-0.348 -0.004,-0.7 -0.004,-1.05 0,-72.199 0,-144.397 -0.004,-216.596 C 0.158,1.603 0.245,0.846 0,0" /></g><g
           transform="translate(433.6601,357.336)"
           id="g100"><path
             id="path102"
             style="fill:#373535;fill-opacity:1;fill-rule:nonzero;stroke:none"
             d="m 0,0 c -1.709,-0.132 -3.195,-0.086 -4.66,-0.03 -0.108,0.287 -0.22,0.445 -0.22,0.603 -0.017,71.789 -0.026,143.579 -0.031,215.369 0,0.212 0.064,0.425 0.095,0.615 0.393,0.066 0.479,-0.205 0.57,-0.386 1.311,-2.605 2.622,-5.209 3.891,-7.834 0.219,-0.453 0.275,-0.996 0.343,-1.506 C 0.042,206.43 0,206.015 0,205.607 0,137.902 0,70.198 0,2.494 Z" /></g><g
           transform="translate(366.1445,632.1473)"
           id="g104"><path
             id="path106"
             style="fill:#373535;fill-opacity:1;fill-rule:nonzero;stroke:none"
             d="m 0,0 c 1.608,-0.383 2.96,-0.704 4.372,-1.04 0.053,-0.465 0.12,-0.854 0.136,-1.244 0.023,-0.525 0.007,-1.051 0.007,-1.576 0,-56.038 0,-112.076 -0.002,-168.114 0,-0.623 -0.026,-1.246 -0.041,-1.888 -0.458,0.073 -0.48,0.398 -0.58,0.651 -1.171,2.985 -2.325,5.977 -3.519,8.953 -0.267,0.665 -0.436,1.32 -0.404,2.034 0.018,0.408 0.003,0.817 0.003,1.226 0,52.769 0,105.538 0.001,158.307 0,0.811 0.016,1.621 0.027,2.691" /></g><g
           transform="translate(479.5077,357.3536)"
           id="g108"><path
             id="path110"
             style="fill:#373535;fill-opacity:1;fill-rule:nonzero;stroke:none"
             d="m 0,0 c -0.051,0.433 -0.106,0.715 -0.114,0.998 -0.016,0.584 -0.008,1.168 -0.008,1.751 0,59.12 0.007,118.24 -0.033,177.36 -0.001,1.688 0.216,3.058 1.67,4.098 0.597,0.426 0.984,1.135 1.639,1.525 0.114,-0.123 0.256,-0.205 0.256,-0.286 C 3.438,123.935 3.457,62.423 3.469,0.912 3.469,0.634 3.377,0.356 3.319,0.024 2.227,-0.177 1.195,-0.114 0,0" /></g><g
           transform="translate(453.4311,538.4465)"
           id="g112"><path
             id="path114"
             style="fill:#373535;fill-opacity:1;fill-rule:nonzero;stroke:none"
             d="M 0,0 C 1.328,-0.75 2.484,-1.402 3.653,-2.063 V -180.94 c -1.203,-0.467 -2.391,-0.193 -3.618,-0.197 -0.08,0.326 -0.165,0.54 -0.181,0.76 C -0.299,-178.226 -0.176,-1.331 0,0" /></g><g
           transform="translate(361.5588,478.5695)"
           id="g116"><path
             id="path118"
             style="fill:#373535;fill-opacity:1;fill-rule:nonzero;stroke:none"
             d="m 0,0 c -0.853,1.59 -1.718,3.174 -2.549,4.775 -0.153,0.297 -0.206,0.663 -0.235,1.003 -0.04,0.464 -0.014,0.933 -0.014,1.4 -10e-4,48.159 -10e-4,96.318 0.005,144.477 0,0.744 -0.12,1.508 0.169,2.277 0.937,0.257 1.838,0.247 2.82,-0.002 0.05,-0.355 0.123,-0.689 0.138,-1.026 0.024,-0.524 0.009,-1.05 0.009,-1.576 0,-49.793 0,-99.587 0,-149.38 0,-0.63 0,-1.261 0,-1.891 C 0.229,0.038 0.114,0.019 0,0" /></g><g
           transform="translate(333.7434,524.7358)"
           id="g120"><path
             id="path122"
             style="fill:#373535;fill-opacity:1;fill-rule:nonzero;stroke:none"
             d="m 0,0 c -0.148,0.239 -0.316,0.467 -0.442,0.718 -1.073,2.136 -2.111,4.291 -3.219,6.41 -0.477,0.914 -0.632,1.841 -0.628,2.857 0.023,6.246 0.012,12.493 0.012,18.74 v 60.249 c 0,0.467 0.027,0.936 -0.006,1.401 -0.053,0.74 0.154,1.357 0.662,1.914 1.172,1.288 2.233,2.681 3.7,3.938 0.118,-0.377 0.243,-0.614 0.259,-0.859 0.035,-0.523 0.015,-1.05 0.015,-1.575 0,-30.592 0,-61.183 0,-91.775 V 0.121 C 0.235,0.08 0.118,0.04 0,0" /></g><g
           transform="translate(509.57,298.1736)"
           id="g124"><path
             id="path126"
             style="fill:#953993;fill-opacity:1;fill-rule:nonzero;stroke:none"
             d="m 0,0 c -2.545,5.153 -5.07,10.266 -7.587,15.383 -0.041,0.083 0.022,0.217 0.037,0.327 1.341,0.175 21.62,0.211 23.633,0.032 0.064,-0.291 0.195,-0.613 0.196,-0.936 0.013,-4.66 0.01,-9.32 0.004,-13.979 0,-0.23 -0.052,-0.459 -0.089,-0.77 -0.267,-0.06 -0.536,-0.174 -0.806,-0.175 C 10.495,-0.128 5.602,-0.125 0.709,-0.119 0.541,-0.119 0.372,-0.065 0,0" /></g><g
           transform="translate(320.4967,602.3535)"
           id="g128"><path
             id="path130"
             style="fill:#373535;fill-opacity:1;fill-rule:nonzero;stroke:none"
             d="m 0,0 c 0.145,-0.201 0.262,-0.288 0.262,-0.375 0.01,-14.873 0.012,-29.747 0.006,-44.621 0,-0.079 -0.12,-0.158 -0.26,-0.331 -0.099,0.247 -0.195,0.433 -0.249,0.63 -1.545,5.63 -2.663,11.334 -3.235,17.154 -0.395,4.018 -0.45,8.037 -0.212,12.05 0.294,4.965 1.203,9.829 3.119,14.459 C -0.427,-0.691 -0.211,-0.378 0,0" /></g><g
           transform="translate(183.1732,303.0939)"
           id="g132"><path
             id="path134"
             style="fill:#373535;fill-opacity:1;fill-rule:nonzero;stroke:none"
             d="m 0,0 c 0.589,1.763 1.182,3.525 1.765,5.29 0.565,1.709 1.12,3.422 1.688,5.163 0.841,0.287 1.631,0.153 2.516,0.102 C 6.029,10.177 6.127,9.847 6.128,9.517 6.139,5.786 6.138,2.056 6.133,-1.674 6.133,-1.961 6.08,-2.248 6.042,-2.637 5.712,-2.696 5.389,-2.813 5.077,-2.788 4.903,-2.774 4.64,-2.547 4.606,-2.379 4.517,-1.928 4.507,-1.456 4.505,-0.993 4.497,1.338 4.505,3.67 4.498,6.001 4.496,6.449 4.451,6.896 4.427,7.315 4.275,7.349 4.218,7.378 4.17,7.367 4.117,7.355 4.044,7.316 4.029,7.272 2.9,3.968 1.776,0.664 0.644,-2.661 0.389,-2.729 0.173,-2.814 -0.051,-2.843 c -0.6,-0.078 -0.997,0.158 -1.192,0.76 -0.466,1.44 -0.956,2.872 -1.435,4.307 C -3.158,3.66 -3.629,5.098 -4.117,6.53 -4.224,6.845 -4.388,7.14 -4.514,7.417 -4.658,7.394 -4.728,7.403 -4.761,7.373 -4.799,7.338 -4.813,7.269 -4.822,7.212 -4.84,7.098 -4.857,6.982 -4.858,6.866 -4.878,3.778 -4.895,0.691 -4.916,-2.397 c -10e-4,-0.052 -0.04,-0.104 -0.061,-0.156 -0.379,-0.435 -0.833,-0.289 -1.309,-0.192 -0.076,0.161 -0.207,0.312 -0.209,0.465 -0.023,2.039 -0.031,4.079 -0.036,6.118 -0.005,1.749 -0.006,3.497 0.003,5.245 0.002,0.455 0.051,0.909 0.08,1.407 0.882,0.219 1.679,0.128 2.568,0.068 C -2.6,7.078 -1.629,3.498 -0.372,0.02 -0.248,0.013 -0.124,0.007 0,0" /></g><g
           transform="translate(322.5665,312.0411)"
           id="g136"><path
             id="path138"
             style="fill:#373535;fill-opacity:1;fill-rule:nonzero;stroke:none"
             d="M 0,0 C 0,-0.792 -0.017,-1.37 0.005,-1.946 0.028,-2.57 -0.1,-3.215 0.19,-3.911 c 1.304,-0.097 2.577,-0.111 3.845,0.02 0.649,0.066 1.26,0.313 1.594,0.939 0.684,1.278 0.027,2.697 -1.413,2.924 C 2.897,0.18 1.562,0.121 0,0 m 0.106,-10.215 c 1.348,0 2.505,-0.021 3.66,0.012 0.398,0.012 0.805,0.122 1.184,0.256 1.099,0.388 1.55,1.094 1.499,2.261 -0.05,1.119 -0.626,1.773 -1.79,2.031 -0.848,0.188 -3.361,0.13 -4.593,-0.131 -0.095,-1.393 -0.119,-2.813 0.04,-4.429 M -1.601,1.559 c 0.31,0.04 0.588,0.105 0.867,0.107 C 0.607,1.677 1.948,1.661 3.289,1.673 4.122,1.681 4.918,1.501 5.663,1.162 7.762,0.209 8.246,-2.177 6.709,-3.91 6.53,-4.111 6.322,-4.287 6.06,-4.541 c 0.373,-0.28 0.627,-0.506 0.913,-0.68 1.836,-1.112 1.879,-5.047 -0.818,-6.039 -0.38,-0.14 -0.771,-0.271 -1.168,-0.339 -2.138,-0.371 -4.283,-0.197 -6.507,-0.166 -0.095,0.349 -0.23,0.613 -0.231,0.878 -0.012,3.907 -0.009,7.813 0,11.719 10e-4,0.22 0.088,0.439 0.15,0.727" /></g><g
           transform="translate(370.4538,357.3283)"
           id="g140"><path
             id="path142"
             style="fill:#373535;fill-opacity:1;fill-rule:nonzero;stroke:none"
             d="m 0,0 h -4.159 c -0.064,0.32 -0.164,0.59 -0.165,0.861 -0.013,3.142 -0.007,6.284 -0.014,9.426 -0.002,0.535 0.124,1.006 0.392,1.485 1.191,2.131 2.338,4.286 3.506,6.429 0.101,0.185 0.246,0.348 0.359,0.506 C 0.296,18.558 0.194,18.292 0.197,18.09 0.358,9.093 0.284,1.657 0,0" /></g><g
           transform="translate(211.3693,307.8434)"
           id="g144"><path
             id="path146"
             style="fill:#373535;fill-opacity:1;fill-rule:nonzero;stroke:none"
             d="M 0,0 C 0.313,-0.101 0.477,-0.201 0.639,-0.2 2.154,-0.185 3.67,-0.172 5.183,-0.117 5.92,-0.09 6.569,0.218 6.896,0.914 7.447,2.086 7.234,4.011 5.333,4.299 4.931,4.361 4.527,4.437 4.123,4.445 3.073,4.464 2.023,4.458 0.973,4.443 0.695,4.439 0.419,4.362 0.071,4.308 -0.177,2.856 -0.069,1.477 0,0 M 6.429,-1.591 C 7.881,-3.032 8.542,-4.42 9.208,-7.367 8.822,-7.737 8.337,-7.652 7.911,-7.538 7.681,-7.477 7.448,-7.192 7.34,-6.952 7.08,-6.369 6.891,-5.754 6.675,-5.151 6.519,-4.712 6.394,-4.26 6.204,-3.836 5.629,-2.547 4.625,-1.842 3.21,-1.792 2.224,-1.757 1.235,-1.785 0.176,-1.785 0.084,-2.184 -0.046,-2.505 -0.055,-2.83 -0.084,-3.878 -0.061,-4.928 -0.074,-5.977 -0.079,-6.434 -0.122,-6.892 -0.146,-7.319 -0.69,-7.71 -1.164,-7.683 -1.636,-7.376 c -0.239,1.624 -0.221,11.642 0.04,13.167 0.304,0.025 0.638,0.074 0.972,0.076 1.749,0.007 3.497,0.004 5.245,0.001 0.292,0 0.584,-0.002 0.874,-0.029 C 7.286,5.67 8.509,4.684 8.874,3.052 9.301,1.14 8.443,-0.344 7.19,-0.996 7.035,-1.077 6.87,-1.142 6.727,-1.239 6.636,-1.301 6.578,-1.41 6.429,-1.591" /></g><g
           transform="translate(297.8254,307.6781)"
           id="g148"><path
             id="path150"
             style="fill:#373535;fill-opacity:1;fill-rule:nonzero;stroke:none"
             d="M 0,0 C 1.88,-0.094 3.561,-0.162 5.234,0.061 6.508,0.23 7.057,0.909 7.083,2.176 7.109,3.487 6.645,4.13 5.388,4.436 4.941,4.545 4.471,4.598 4.01,4.609 3.022,4.634 2.032,4.632 1.043,4.606 0.712,4.598 0.384,4.484 0,4.407 Z M -1.703,5.908 C -1.389,5.958 -1.17,6.024 -0.95,6.025 1.034,6.033 3.017,6.034 5,6.024 5.348,6.023 5.703,5.997 6.043,5.925 7.649,5.584 8.591,4.568 8.879,2.976 9.153,1.461 8.665,0.219 7.388,-0.679 7.066,-0.906 6.727,-1.11 6.319,-1.374 8.214,-2.899 8.463,-5.115 9.26,-7.071 8.509,-7.422 8.509,-7.422 7.462,-7.24 7.195,-6.488 6.908,-5.671 6.613,-4.857 6.454,-4.419 6.308,-3.974 6.108,-3.555 5.531,-2.343 4.559,-1.678 3.215,-1.628 2.227,-1.591 1.237,-1.621 0.166,-1.621 0.081,-1.999 -0.047,-2.32 -0.056,-2.644 c -0.028,-1.05 -0.006,-2.1 -0.017,-3.15 -0.004,-0.458 -0.04,-0.915 -0.067,-1.483 -0.489,-0.055 -0.923,-0.104 -1.352,-0.152 -0.118,0.248 -0.248,0.398 -0.253,0.552 -0.03,0.991 -0.04,1.982 -0.041,2.973 -0.005,2.684 -0.006,5.367 0.002,8.051 0.002,0.569 0.051,1.138 0.081,1.761" /></g><g
           transform="translate(391.8049,306.3834)"
           id="g152"><path
             id="path154"
             style="fill:#373535;fill-opacity:1;fill-rule:nonzero;stroke:none"
             d="m 0,0 c -0.135,-1.61 -0.145,-2.986 -0.017,-4.455 2.755,-0.3 5.43,0.035 8.159,-0.208 V -5.93 c -0.229,-0.073 -0.438,-0.187 -0.654,-0.2 -2.414,-0.153 -7.89,-0.045 -9.064,0.163 -0.046,0.035 -0.104,0.062 -0.135,0.107 -0.031,0.046 -0.05,0.11 -0.051,0.166 -0.023,3.849 -0.046,7.698 -0.062,11.548 -10e-4,0.402 0.038,0.805 0.064,1.312 1.629,0.329 3.252,0.144 4.857,0.151 1.562,0.006 3.136,0.152 4.732,-0.112 V 5.927 C 6.518,5.563 5.233,5.816 3.967,5.744 2.696,5.672 1.412,5.883 0.089,5.594 -0.27,4.377 -0.028,3.174 -0.073,1.886 0.344,1.804 0.668,1.691 0.994,1.686 2.453,1.665 3.912,1.675 5.37,1.674 c 0.576,-10e-4 1.152,0 1.632,0 C 7.481,1.173 7.443,0.739 7.237,0.292 7.133,0.227 7.039,0.116 6.943,0.115 5.252,0.091 3.561,0.084 1.869,0.065 1.296,0.058 0.723,0.026 0,0" /></g><g
           transform="translate(382.9016,303.8214)"
           id="g156"><path
             id="path158"
             style="fill:#373535;fill-opacity:1;fill-rule:nonzero;stroke:none"
             d="M 0,0 C 0.129,1.078 0.041,2.169 0.058,3.253 0.074,4.301 0.057,5.35 0.062,6.399 0.069,7.497 0.085,8.594 0.097,9.786 h 1.42 C 1.577,9.674 1.678,9.573 1.678,9.472 1.686,5.226 1.685,0.98 1.685,-3.243 0.329,-3.793 0.056,-3.741 -0.669,-2.664 -2.393,-0.103 -4.094,2.472 -5.806,5.04 -6.123,5.516 -6.447,5.986 -6.741,6.418 -7.255,6.288 -7.193,5.962 -7.194,5.694 -7.202,3.248 -7.196,0.801 -7.205,-1.646 c -0.003,-0.57 -0.05,-1.14 -0.081,-1.801 -0.495,-0.031 -0.872,-0.055 -1.192,-0.076 -0.131,0.176 -0.245,0.261 -0.258,0.358 -0.052,0.402 -0.099,0.807 -0.1,1.212 -0.007,3.437 -0.008,6.874 10e-4,10.311 0.001,0.456 0.062,0.911 0.103,1.458 0.583,0.029 1.086,0.053 1.696,0.083 2.218,-3.34 4.434,-6.677 6.65,-10.014 C -0.257,-0.076 -0.129,-0.038 0,0" /></g><g
           transform="translate(264.2619,306.501)"
           id="g160"><path
             id="path162"
             style="fill:#373535;fill-opacity:1;fill-rule:nonzero;stroke:none"
             d="m 0,0 c 0.146,-0.559 0.28,-1.561 0.669,-2.451 0.752,-1.72 2.207,-2.547 4.049,-2.531 1.772,0.016 3.153,0.851 3.919,2.478 0.92,1.951 0.937,3.97 0.028,5.925 C 7.916,5.034 6.609,5.886 4.783,5.921 2.89,5.956 1.542,5.12 0.675,3.477 0.174,2.527 0.06,1.481 0,0 M 11.077,0.516 C 11.119,-1.003 10.769,-2.343 10.015,-3.557 8.93,-5.305 7.343,-6.234 5.284,-6.417 1.66,-6.74 -1.17,-4.529 -1.727,-0.659 -1.912,0.626 -1.808,1.905 -1.38,3.132 -0.526,5.576 1.307,7.382 4.544,7.457 7.231,7.519 9.521,6.213 10.613,3.341 10.966,2.413 11.154,1.438 11.077,0.516" /></g><g
           transform="translate(419.13,304.4894)"
           id="g164"><path
             id="path166"
             style="fill:#373535;fill-opacity:1;fill-rule:nonzero;stroke:none"
             d="m 0,0 h 1.462 c 0.091,-0.128 0.193,-0.212 0.218,-0.315 0.596,-2.488 3.68,-3.036 5.802,-2.249 0.368,0.137 0.727,0.395 0.996,0.685 0.839,0.904 0.675,2.201 -0.37,2.86 C 7.673,1.256 7.166,1.441 6.668,1.586 5.774,1.847 4.855,2.019 3.962,2.281 3.352,2.461 2.751,2.697 2.175,2.968 -0.125,4.047 0.088,7.132 1.728,8.379 2.549,9.002 3.482,9.296 4.47,9.43 5.836,9.615 7.156,9.394 8.364,8.732 9.558,8.077 10.253,7.069 10.297,5.558 9.797,5.525 9.352,5.497 8.972,5.472 8.826,5.631 8.714,5.7 8.681,5.797 8.335,6.811 7.683,7.506 6.621,7.747 5.456,8.011 4.299,8.007 3.213,7.439 2.536,7.086 2.206,6.511 2.227,5.725 2.248,4.969 2.671,4.524 3.322,4.309 4.148,4.036 5.004,3.852 5.842,3.612 6.736,3.356 7.656,3.154 8.507,2.794 9.765,2.262 10.598,1.331 10.693,-0.114 10.796,-1.663 10.145,-2.83 8.843,-3.625 8.401,-3.895 7.909,-4.141 7.407,-4.246 6.083,-4.526 4.739,-4.536 3.425,-4.169 1.432,-3.613 0.233,-2.355 0,0" /></g><g
           transform="translate(171.3459,310.0442)"
           id="g168"><path
             id="path170"
             style="fill:#373535;fill-opacity:1;fill-rule:nonzero;stroke:none"
             d="M 0,0 C -0.483,-0.024 -0.922,-0.047 -1.294,-0.065 -1.412,0.061 -1.469,0.097 -1.49,0.147 -1.853,1.036 -2.328,1.805 -3.332,2.104 -4.428,2.43 -5.523,2.493 -6.585,2.05 -6.998,1.878 -7.417,1.597 -7.694,1.254 c -0.655,-0.812 -0.407,-1.885 0.517,-2.373 0.407,-0.215 0.863,-0.355 1.31,-0.473 0.902,-0.238 1.821,-0.409 2.717,-0.665 0.612,-0.176 1.217,-0.406 1.788,-0.687 2.458,-1.21 2.184,-4.394 0.752,-5.637 -0.434,-0.377 -0.922,-0.754 -1.453,-0.945 -2.004,-0.725 -4.013,-0.691 -5.935,0.29 -1.422,0.727 -2.026,1.822 -2.085,3.649 0.432,0.039 0.87,0.078 1.239,0.112 0.154,-0.167 0.281,-0.24 0.3,-0.335 0.575,-2.787 4.281,-3.094 6.073,-2.185 0.483,0.244 0.867,0.595 1.071,1.107 0.373,0.936 0.069,1.955 -0.844,2.391 -0.781,0.373 -1.638,0.594 -2.473,0.842 -0.614,0.182 -1.258,0.263 -1.867,0.458 -0.552,0.177 -1.101,0.398 -1.604,0.684 -2.1,1.193 -1.934,3.708 -0.689,4.937 0.445,0.44 1.001,0.83 1.58,1.058 1.704,0.672 3.44,0.618 5.106,-0.145 C -0.837,2.716 0.071,1.735 0,0" /></g><g
           transform="translate(404.4235,304.5125)"
           id="g172"><path
             id="path174"
             style="fill:#373535;fill-opacity:1;fill-rule:nonzero;stroke:none"
             d="m 0,0 h 1.266 c 0.115,-0.151 0.225,-0.232 0.246,-0.332 0.573,-2.748 4.347,-3.05 6.101,-2.102 0.719,0.389 1.148,0.97 1.155,1.82 C 8.774,0.084 8.521,0.656 7.894,0.983 7.432,1.224 6.941,1.425 6.442,1.569 5.547,1.828 4.627,2.002 3.734,2.267 3.123,2.448 2.512,2.669 1.949,2.964 -0.334,4.159 -0.118,6.938 1.434,8.257 2.421,9.095 3.6,9.406 4.838,9.45 6.134,9.496 7.408,9.274 8.503,8.503 9.495,7.804 10.157,6.912 10.031,5.519 H 8.68 C 8.592,5.657 8.435,5.833 8.36,6.038 7.924,7.242 6.966,7.712 5.798,7.841 4.924,7.937 4.026,7.946 3.234,7.5 2.845,7.281 2.459,6.96 2.221,6.589 1.733,5.827 1.976,4.91 2.758,4.476 3.21,4.226 3.722,4.067 4.224,3.93 5.124,3.686 6.045,3.52 6.939,3.261 7.55,3.083 8.154,2.848 8.722,2.56 11.084,1.361 10.853,-1.706 9.508,-2.966 9.09,-3.359 8.608,-3.75 8.082,-3.95 6.026,-4.73 3.961,-4.699 1.987,-3.677 0.558,-2.938 -0.049,-1.768 0,0" /></g><g
           transform="translate(351.1122,304.5177)"
           id="g176"><path
             id="path178"
             style="fill:#373535;fill-opacity:1;fill-rule:nonzero;stroke:none"
             d="m 0,0 h 1.304 c 0.115,-0.144 0.23,-0.223 0.249,-0.322 0.53,-2.709 4.259,-3.081 6.076,-2.133 0.793,0.414 1.21,1.051 1.17,1.975 C 8.772,0.156 8.53,0.662 7.971,0.957 7.512,1.199 7.026,1.41 6.528,1.556 5.636,1.816 4.718,1.989 3.826,2.251 3.216,2.43 2.609,2.652 2.04,2.934 -0.311,4.1 -0.078,7.027 1.559,8.326 2.566,9.125 3.746,9.409 4.982,9.456 6.038,9.496 7.074,9.281 8.03,8.812 9.375,8.152 9.96,7.213 10.065,5.547 9.629,5.508 9.19,5.469 8.773,5.432 8.627,5.645 8.49,5.774 8.442,5.93 8.136,6.921 7.43,7.495 6.468,7.719 5.251,8.003 4.032,7.998 2.92,7.313 2.34,6.955 2.01,6.416 2.038,5.71 2.066,4.978 2.494,4.513 3.148,4.296 3.974,4.023 4.824,3.826 5.661,3.587 6.554,3.332 7.479,3.146 8.327,2.785 9.646,2.224 10.502,1.255 10.539,-0.279 10.577,-1.826 9.942,-3.031 8.578,-3.716 6.285,-4.868 3.942,-4.798 1.742,-3.497 0.542,-2.787 -0.158,-1.65 0,0" /></g><g
           transform="translate(199.2008,311.5606)"
           id="g180"><path
             id="path182"
             style="fill:#373535;fill-opacity:1;fill-rule:nonzero;stroke:none"
             d="M 0,0 C -1.369,-3.089 -1.852,-4.605 -1.83,-5.69 0.079,-5.951 1.165,-5.907 2.206,-5.528 1.878,-3.923 0.771,-1.106 0,0 M 6.529,-11.245 H 4.68 c -0.81,1.228 -0.983,2.74 -1.769,3.978 h -5.56 c -0.507,-1.302 -1.01,-2.595 -1.489,-3.827 -0.581,-0.289 -1.073,-0.334 -1.623,0.014 0.024,0.206 0.005,0.446 0.083,0.649 1.623,4.17 3.148,8.378 4.838,12.523 H 1.087 C 2.867,-2.27 4.642,-6.62 6.529,-11.245" /></g><g
           transform="translate(280.1808,313.636)"
           id="g184"><path
             id="path186"
             style="fill:#373535;fill-opacity:1;fill-rule:nonzero;stroke:none"
             d="m 0,0 h 1.509 c 0.045,-0.56 0.118,-1.067 0.122,-1.575 0.015,-1.806 -0.01,-3.613 0.014,-5.419 0.011,-0.813 0.046,-1.634 0.169,-2.437 0.247,-1.615 0.997,-2.339 2.625,-2.545 0.568,-0.071 1.157,-0.017 1.732,0.034 1.357,0.12 2.096,0.967 2.335,2.226 0.161,0.852 0.2,1.736 0.215,2.607 0.032,1.747 0.005,3.496 0.015,5.244 0.003,0.573 0.046,1.146 0.07,1.707 0.57,0.321 1.049,0.291 1.527,0.07 0.284,-1.776 0.229,-8.417 -0.077,-9.942 -0.022,-0.114 -0.032,-0.232 -0.06,-0.344 -0.434,-1.694 -1.522,-2.784 -3.224,-3.048 -1.135,-0.176 -2.335,-0.166 -3.476,-0.014 -1.876,0.248 -2.997,1.418 -3.372,3.292 -0.136,0.683 -0.238,1.384 -0.247,2.078 -0.03,2.389 -0.016,4.778 -0.006,7.167 C -0.128,-0.619 -0.051,-0.34 0,0" /></g><g
           transform="translate(335.8055,313.6211)"
           id="g188"><path
             id="path190"
             style="fill:#373535;fill-opacity:1;fill-rule:nonzero;stroke:none"
             d="m 0,0 h 1.39 c 0.063,-0.173 0.169,-0.332 0.17,-0.493 0.02,-2.272 0.004,-4.544 0.045,-6.816 0.015,-0.809 0.111,-1.626 0.259,-2.423 0.239,-1.284 1.01,-2.084 2.352,-2.198 0.63,-0.054 1.272,-0.045 1.904,10e-4 1.269,0.093 2.026,0.847 2.309,2.036 0.161,0.671 0.216,1.38 0.226,2.073 0.03,1.981 0.007,3.962 0.015,5.943 0.002,0.575 0.035,1.15 0.056,1.769 0.538,0.274 1.019,0.229 1.608,0.062 0.038,-0.42 0.103,-0.814 0.105,-1.209 0.009,-2.156 0.018,-4.312 -0.006,-6.467 -0.008,-0.755 -0.052,-1.52 -0.184,-2.262 -0.368,-2.066 -1.698,-3.308 -3.785,-3.498 -0.923,-0.084 -1.874,-0.106 -2.788,0.022 -1.83,0.257 -3.123,1.229 -3.532,3.128 -0.122,0.566 -0.246,1.146 -0.252,1.721 -0.026,2.622 -0.013,5.244 -0.005,7.866 0,0.223 0.066,0.446 0.113,0.745" /></g><g
           transform="translate(253.9008,300.6023)"
           id="g192"><path
             id="path194"
             style="fill:#373535;fill-opacity:1;fill-rule:nonzero;stroke:none"
             d="m 0,0 c -0.644,-0.456 -1.124,-0.445 -1.673,-0.12 -0.254,0.7 -0.115,1.463 -0.143,2.209 -0.041,1.104 0.143,2.272 -0.162,3.296 -0.287,0.962 -1.075,1.778 -1.66,2.647 -0.814,1.209 -1.649,2.404 -2.467,3.609 -0.257,0.38 -0.489,0.776 -0.719,1.142 0.255,0.463 0.634,0.298 0.943,0.32 0.285,0.021 0.575,-0.025 0.925,-0.045 1.279,-1.94 2.555,-3.877 3.916,-5.942 0.309,0.321 0.572,0.525 0.746,0.787 1.124,1.699 2.228,3.41 3.358,5.146 H 4.952 C 4.801,12.698 4.719,12.38 4.546,12.123 3.245,10.189 1.941,8.255 0.603,6.346 0.183,5.745 -0.028,5.136 -0.01,4.399 0.025,2.943 0,1.486 0,0" /></g><g
           transform="translate(230.6378,311.9272)"
           id="g196"><path
             id="path198"
             style="fill:#373535;fill-opacity:1;fill-rule:nonzero;stroke:none"
             d="m 0,0 c -0.13,-3.876 0.025,-7.657 -0.089,-11.364 -0.581,-0.474 -1.059,-0.297 -1.646,-0.14 -0.118,1.324 -0.045,2.599 -0.058,3.87 -0.013,1.226 -0.003,2.452 -0.003,3.677 0,1.279 0,2.558 0,3.923 C -2.205,0.054 -2.525,0.174 -2.848,0.183 -3.838,0.209 -4.83,0.192 -5.78,0.192 -6.167,0.888 -6.167,0.888 -5.995,1.638 -4.407,1.851 2.852,1.844 4.342,1.616 V 0.406 C 2.984,-0.074 1.55,0.437 0,0" /></g><g
           transform="translate(366.9376,313.6605)"
           id="g200"><path
             id="path202"
             style="fill:#373535;fill-opacity:1;fill-rule:nonzero;stroke:none"
             d="m 0,0 h 1.374 c 0.066,-0.268 0.185,-0.531 0.186,-0.794 0.011,-3.951 0.007,-7.901 0,-11.851 0,-0.166 -0.061,-0.332 -0.117,-0.615 -0.418,-0.052 -0.851,-0.107 -1.359,-0.17 -0.091,0.362 -0.217,0.628 -0.218,0.896 -0.01,3.95 -0.005,7.9 0.002,11.851 0,0.167 0.062,0.334 0.132,0.683" /></g><g
           transform="translate(361.8557,362.6955)"
           id="g204"><path
             id="path206"
             style="fill:#373535;fill-opacity:1;fill-rule:nonzero;stroke:none"
             d="m 0,0 c 0.041,-1.998 0.127,-3.601 -0.055,-5.278 -0.938,-0.267 -1.839,-0.158 -2.793,-0.098 -0.447,0.773 -0.168,1.58 -0.228,2.42 C -2.142,-2.059 -1.205,-1.158 0,0" /></g><g
           transform="translate(322.6729,301.8266)"
           id="g208"><path
             id="path210"
             style="fill:#ffffff;fill-opacity:1;fill-rule:nonzero;stroke:none"
             d="M 0,0 C -0.159,1.615 -0.136,3.036 -0.041,4.429 1.191,4.689 3.705,4.748 4.553,4.56 5.717,4.301 6.293,3.648 6.342,2.529 6.394,1.361 5.942,0.655 4.843,0.268 4.465,0.134 4.057,0.023 3.66,0.012 2.505,-0.022 1.348,0 0,0" /></g><g
           transform="translate(322.5665,312.0411)"
           id="g212"><path
             id="path214"
             style="fill:#ffffff;fill-opacity:1;fill-rule:nonzero;stroke:none"
             d="M 0,0 C 1.562,0.121 2.897,0.18 4.216,-0.028 5.656,-0.255 6.313,-1.674 5.629,-2.952 5.295,-3.578 4.684,-3.825 4.035,-3.891 2.767,-4.022 1.494,-4.008 0.19,-3.911 -0.1,-3.215 0.028,-2.57 0.005,-1.946 -0.017,-1.37 0,-0.792 0,0" /></g><g
           transform="translate(211.3693,307.8434)"
           id="g216"><path
             id="path218"
             style="fill:#ffffff;fill-opacity:1;fill-rule:nonzero;stroke:none"
             d="m 0,0 c -0.069,1.477 -0.177,2.856 0.071,4.308 0.348,0.054 0.624,0.131 0.902,0.135 1.05,0.015 2.1,0.021 3.15,0.002 C 4.527,4.437 4.931,4.361 5.333,4.299 7.234,4.011 7.447,2.086 6.896,0.914 6.569,0.218 5.92,-0.09 5.183,-0.117 3.67,-0.172 2.154,-0.185 0.639,-0.2 0.477,-0.201 0.313,-0.101 0,0" /></g><g
           transform="translate(297.8254,307.6781)"
           id="g220"><path
             id="path222"
             style="fill:#ffffff;fill-opacity:1;fill-rule:nonzero;stroke:none"
             d="M 0,0 V 4.407 C 0.384,4.484 0.712,4.598 1.043,4.606 2.032,4.632 3.022,4.634 4.01,4.609 4.471,4.598 4.941,4.545 5.388,4.436 6.645,4.13 7.109,3.487 7.083,2.176 7.057,0.909 6.508,0.23 5.234,0.061 3.561,-0.162 1.88,-0.094 0,0" /></g><g
           transform="translate(264.2619,306.501)"
           id="g224"><path
             id="path226"
             style="fill:#ffffff;fill-opacity:1;fill-rule:nonzero;stroke:none"
             d="M 0,0 C 0.06,1.481 0.174,2.527 0.675,3.477 1.542,5.12 2.89,5.956 4.783,5.921 6.609,5.886 7.916,5.034 8.665,3.421 9.574,1.466 9.557,-0.553 8.637,-2.504 7.871,-4.131 6.49,-4.966 4.718,-4.982 2.876,-4.998 1.421,-4.171 0.669,-2.451 0.28,-1.561 0.146,-0.559 0,0" /></g><g
           transform="translate(199.2008,311.5606)"
           id="g228"><path
             id="path230"
             style="fill:#ffffff;fill-opacity:1;fill-rule:nonzero;stroke:none"
             d="M 0,0 C 0.771,-1.106 1.878,-3.923 2.206,-5.528 1.165,-5.907 0.079,-5.951 -1.83,-5.69 -1.852,-4.605 -1.369,-3.089 0,0" /></g></g></g></g></svg>