<svg height="496pt" viewBox="-72 0 496 496.00066" width="496pt" xmlns="http://www.w3.org/2000/svg"><path d="m176 8c-92.785156 0-168 75.214844-168 168 0 92.800781 168 312 168 312s168-219.199219 168-312c0-92.785156-75.214844-168-168-168zm0 208c-30.925781 0-56-25.070312-56-56s25.074219-56 56-56c30.929688 0 56 25.070312 56 56 .011719 14.855469-5.886719 29.105469-16.390625 39.609375s-24.753906 16.402344-39.609375 16.390625zm0 0" fill="#57a4ff"/><g fill="#004fac"><path d="m176 0c-97.15625.109375-175.890625 78.84375-176 176 0 94.398438 162.71875 307.832031 169.648438 316.863281 1.515624 1.976563 3.863281 3.136719 6.351562 3.136719 2.492188 0 4.839844-1.160156 6.351562-3.136719 6.929688-9.03125 169.648438-222.464843 169.648438-316.863281-.109375-97.15625-78.84375-175.890625-176-176zm0 474.679688c-30.472656-40.960938-160-219.734376-160-298.679688 0-88.367188 71.636719-160 160-160 88.367188 0 160 71.632812 160 160 0 78.945312-129.527344 257.71875-160 298.679688zm0 0"/><path d="m184 40c0-4.417969-3.582031-8-8-8-79.492188.09375-143.90625 64.507812-144 144 0 4.417969 3.582031 8 8 8s8-3.582031 8-8c.085938-70.65625 57.34375-127.917969 128-128 4.417969 0 8-3.582031 8-8zm0 0"/><path d="m176 96c-35.347656 0-64 28.652344-64 64s28.652344 64 64 64 64-28.652344 64-64c-.039062-35.328125-28.667969-63.960938-64-64zm0 112c-26.507812 0-48-21.492188-48-48s21.492188-48 48-48c26.511719 0 48 21.492188 48 48-.027344 26.5-21.5 47.972656-48 48zm0 0"/></g></svg>