<svg height="384pt" viewBox="0 0 384 384.008" width="384pt" xmlns="http://www.w3.org/2000/svg"><path d="m207.996094 0c-1.597656 0-3.292969.0078125-4.320313.078125-.007812 0-.023437 0-.03125 0-1.214843-.046875-2.464843-.078125-3.648437-.078125-101.460938 0-184 82.535156-184 184 0 31.167969 7.929687 61.574219 22.863281 88.601562l-35.46875 65.101563c-.203125.375-.394531.753906-.5625 1.136719-5.460937 12.230468-2.8632812 26.257812 6.601563 35.734375 6.175781 6.167969 14.296874 9.433593 22.582031 9.433593 4.425781 0 8.890625-.929687 13.152343-2.832031.386719-.167969.761719-.359375 1.136719-.558593l65.105469-35.472657c27.023438 14.933594 57.4375 22.863281 88.597656 22.863281 101.464844 0 184-82.535156 184-184 0-1.390624-.03125-2.792968-.085937-4.191406.046875-1.273437.085937-2.570312.085937-3.808594-.007812-97.054687-78.957031-176.007812-176.007812-176.007812zm-8 336c-28.382813 0-56.023438-7.871094-79.933594-22.777344-.160156-.09375-.328125-.152344-.488281-.238281-.535157-.3125-1.089844-.570313-1.648438-.808594-.417969-.183593-.832031-.359375-1.257812-.503906-.535157-.175781-1.085938-.304687-1.640625-.433594-.460938-.101562-.917969-.207031-1.382813-.269531-.550781-.074219-1.101562-.089844-1.664062-.105469-.472657-.007812-.925781-.023437-1.398438 0-.554687.03125-1.089843.128907-1.632812.214844-.488281.082031-.96875.167969-1.449219.289063-.480469.128906-.949219.304687-1.421875.480468-.542969.199219-1.082031.417969-1.601563.671875-.175781.089844-.351562.128907-.527343.222657l-71.855469 39.160156 39.160156-71.855469c.09375-.175781.136719-.359375.222656-.535156.257813-.519531.472657-1.039063.664063-1.582031.175781-.472657.34375-.9375.480469-1.417969.128906-.488281.214844-.984375.296875-1.480469.085937-.527344.175781-1.054688.207031-1.582031.03125-.496094.015625-.984375 0-1.480469-.015625-.527344-.023438-1.058594-.097656-1.578125-.0625-.496094-.175782-.992187-.285156-1.480469-.121094-.519531-.234376-1.03125-.402344-1.535156-.152344-.453125-.34375-.894531-.542969-1.351562-.230469-.535157-.480469-1.054688-.769531-1.558594-.09375-.167969-.148438-.351563-.253906-.519532-14.894532-23.914062-22.777344-51.554687-22.777344-79.9375 0-83.816406 68.183594-152 152-152 .832031-.007812 1.777344-.007812 2.640625.046876.34375.023437 1.097656.035156 1.441406.035156.160156 0 .3125-.042969.472656-.050782.167969-.007812.335938.03125.503907.015626.957031-.054688 1.992187-.046876 2.941406-.046876 79.402344 0 144 64.601563 144 144 0 .960938.007812 1.984376-.046875 2.945313-.015625.292969.039062.582031.039062.886719 0 .335937-.0625.664062-.039062 1 .0625 1.046875.054687 2.105468.054687 3.160156-.007812 83.816406-68.191406 152-152.007812 152zm0 0"/><path d="m282.40625 149.304688-46.832031-7.152344-21.097657-44.945313c-2.640624-5.613281-8.289062-9.199219-14.488281-9.199219s-11.847656 3.585938-14.488281 9.199219l-21.09375 44.945313-46.832031 7.152344c-5.929688.902343-10.847657 5.054687-12.761719 10.742187-1.910156 5.6875-.472656 11.960937 3.722656 16.25l34.359375 35.207031-8.144531 49.921875c-.992188 6.046875 1.558594 12.125 6.566406 15.652344 5.023438 3.53125 11.585938 3.882813 16.960938.921875l41.710937-23.039062 41.703125 23.046874c2.425782 1.335938 5.089844 2 7.746094 2 3.230469 0 6.464844-.984374 9.214844-2.917968 5.007812-3.53125 7.5625-9.609375 6.570312-15.65625l-8.144531-49.921875 34.359375-35.207031c4.183594-4.289063 5.625-10.5625 3.71875-16.25-1.902344-5.6875-6.824219-9.847657-12.75-10.75zm-53.871094 45.640624c-3.546875 3.628907-5.160156 8.734376-4.339844 13.75l4.144532 25.375-20.605469-11.390624c-2.417969-1.335938-5.082031-2-7.746094-2-2.664062 0-5.328125.664062-7.742187 2l-20.609375 11.390624 4.144531-25.375c.824219-5.015624-.792969-10.121093-4.335938-13.75l-18.25-18.707031 24.496094-3.742187c5.273438-.816406 9.808594-4.191406 12.074219-9.023438l10.222656-21.800781 10.234375 21.808594c2.261719 4.832031 6.796875 8.207031 12.070313 9.023437l24.496093 3.742188zm0 0"/></svg>