<svg height="512pt" viewBox="0 -38 512 512" width="512pt" xmlns="http://www.w3.org/2000/svg"><path d="m204.789062 285 49.394532-49.394531c5.859375-5.859375 5.859375-15.351563 0-21.210938l-45.789063-45.792969 39.140625-97.851562c1.890625-4.746094 1.242188-10.136719-1.730468-14.296875-25.328126-35.34375-66.371094-56.453125-109.804688-56.453125-79.308594 0-136 61.964844-136 150.6875 0 110.628906 92.28125 166.726562 219.699219 277.164062 6.933593 6.011719 11.535156 11.234376 20.640625 8.4375 4.980468-1.582031 8.773437-5.609374 10.035156-10.679687l16.949219-67.777344c1.289062-5.109375-.222657-10.515625-3.941407-14.238281zm0 0"/><path d="m376 0c-26.234375 0-51.695312 7.542969-73.621094 21.824219-2.59375 1.6875-4.585937 4.132812-5.742187 7.003906l-49.367188 123.382813c-2.226562 5.566406-.921875 11.925781 3.324219 16.171874l56.617188 56.617188-49.394532 49.394531c-5.859375 5.859375-5.859375 15.351563 0 21.210938l44.792969 44.796875-15.175781 60.761718c-1.59375 6.34375 1.128906 12.992188 6.710937 16.421876 8.34375 5.105468 14.519531 1.261718 20.992188-4.351563 43.503906-37.632813 77.871093-67.355469 108.25-96.417969 45.351562-43.402344 88.613281-93.574218 88.613281-166.128906 0-88.722656-56.691406-150.6875-136-150.6875zm0 0"/></svg>