<svg height="440pt" viewBox="0 -44 440.04 440" width="440pt" xmlns="http://www.w3.org/2000/svg"><path d="m7.007812 7.019531h410.382813v263.757813h-410.382813zm0 0" fill="#43a3f9"/><path d="m395.433594 7.019531h21.957031v263.757813h-21.957031zm0 0" fill="#288aea"/><g fill="#e3f4ff"><path d="m7.007812 159.769531 228.820313 111.011719h57.214844l-286.035157-138.78125zm0 0"/><path d="m417.390625 141.828125-277.78125-134.808594h-57.21875l335 162.574219zm0 0"/><path d="m417.390625 242.34375v-41.902344l-398.320313-193.421875h-12.0625v36.046875zm0 0"/></g><path d="m7.007812 47.480469h410.382813v61.265625h-410.382813zm0 0" fill="#2c5168"/><path d="m395.433594 47.480469h21.957031v61.265625h-21.957031zm0 0" fill="#214456"/><path d="m48.5625 153.078125h122.230469v29.585937h-122.230469zm0 0" fill="#2c5168"/><path d="m205.761719 153.078125h67.550781v29.585937h-67.550781zm0 0" fill="#2c5168"/><path d="m308.285156 153.078125h67.550782v29.585937h-67.550782zm0 0" fill="#2c5168"/><path d="m407.457031 150.183594-56.941406-7.023438-56.9375 7.023438s5.800781 31.417968-25.566406 31.417968v46.898438c0 24.753906 2.992187 84.636719 82.507812 117.03125 79.515625-32.398438 82.507813-92.277344 82.507813-117.03125v-46.898438c-31.371094 0-25.570313-31.417968-25.570313-31.417968zm0 0" fill="#ffdf46"/><path d="m339 283.699219c-3-.003907-5.878906-1.199219-8-3.320313l-22.167969-22.167968c-4.425781-4.425782-4.425781-11.601563.003907-16.023438 4.425781-4.425781 11.597656-4.425781 16.023437 0l14.140625 14.171875 48.0625-48.058594c4.425781-4.425781 11.601562-4.425781 16.027344-.003906 4.425781 4.425781 4.425781 11.601563.003906 16.027344l-56.09375 56.074219c-2.125 2.117187-5.003906 3.300781-8 3.300781zm0 0" fill="#ffc32c"/><path d="m407.457031 150.183594-56.941406-7.023438-5.722656.707032 51.199219 6.320312s-5.800782 31.417969 25.566406 31.417969v46.894531c0 24.140625-2.878906 81.683594-76.796875 114.566406 1.875.832032 3.757812 1.664063 5.722656 2.46875 79.515625-32.398437 82.507813-92.277344 82.507813-117.03125v-46.902344c-31.335938 0-25.535157-31.417968-25.535157-31.417968zm0 0" fill="#ffc32c"/><path d="m333.558594 283.699219c-3-.003907-5.875-1.199219-8-3.320313l-22.160156-22.148437c-4.113282-4.464844-3.976563-11.386719.316406-15.683594 4.292968-4.300781 11.210937-4.449219 15.683594-.339844l14.152343 14.152344 48.074219-48.058594c4.425781-4.425781 11.597656-4.425781 16.023438-.003906 4.425781 4.425781 4.429687 11.601563.003906 16.027344l-56.078125 56.074219c-2.128907 2.121093-5.011719 3.304687-8.015625 3.300781zm0 0" fill="#2c5168"/><path d="m264.832031 14.019531c-3.867187 0-7-3.132812-7-7 0-3.867187 3.132813-6.9999998 7-6.9999998h22.90625c3.867188 0 7 3.1328128 7 6.9999998 0 3.867188-3.132812 7-7 7zm-216.269531 175.640625c-3.863281 0-7-3.132812-7-7v-29.601562c0-3.863282 3.136719-7 7-7h122.230469c3.863281 0 7 3.136718 7 7v29.601562c0 3.867188-3.136719 7-7 7zm7-14h108.238281v-15.601562h-108.238281zm247.601562 149.925782c-2.945312-2.507813-3.300781-6.925782-.792968-9.871094 2.503906-2.945313 6.925781-3.300782 9.867187-.792969 11.53125 9.566406 24.441407 17.332031 38.292969 23.035156 75.511719-32.09375 75.515625-90.214843 75.515625-109.457031v-40.429688c-4.378906-.597656-8.585937-2.097656-12.359375-4.398437-.035156-.019531-.058594-.046875-.09375-.070313-.117188-.078124-.226562-.167968-.335938-.253906-8.71875-6.175781-13.703124-16.359375-13.226562-27.03125l-49.511719-6.125-49.554687 6.125c.148437 7.863282-2.378906 15.542969-7.164063 21.785156-4.78125 5.582032-11.496093 9.15625-18.800781 10v40.398438c-.269531 13.585938 1.664062 27.125 5.726562 40.09375 2.597657 7.984375 6.195313 15.609375 10.707032 22.691406 2.019531 3.253906 1.050781 7.53125-2.179688 9.59375-3.230468 2.0625-7.519531 1.140625-9.621094-2.0625-4.210937-6.632812-7.71875-13.683594-10.464843-21.039062h-262.167969c-3.867188 0-7-3.136719-7-7v-39.242188c0-3.863281 3.132812-7 7-7s7 3.136719 7 7v32.246094h250.847656c-2.257812-9.46875-3.515625-19.148438-3.742187-28.882812h-21.570313c-3.863281 0-7-3.132813-7-7 0-3.863282 3.136719-7 7-7h21.464844v-31.238282h-55.238281c-3.867188 0-7-3.132812-7-7v-29.601562c0-3.863282 3.132812-7 7-7h67.550781c3.867188 0 7 3.136718 7 7v18.480468c1.007812-.664062 1.917969-1.472656 2.695312-2.398437 5.539063-6.59375 3.679688-17.640625 3.664063-17.75-.332031-1.890625.121094-3.835937 1.261719-5.382813 1.136718-1.546874 2.859375-2.5625 4.765625-2.804687l56.960937-7.042969c.570313-.070312 1.148438-.070312 1.71875 0l56.921875 7.042969c.730469.101563 1.4375.316406 2.097657.640625v-28.097656h-396.398438v85.152344c0 3.867187-3.132812 7-7 7s-7-3.132813-7-7v-193.878907c0-3.867187 3.132812-6.9999998 7-6.9999998h219.386719c3.867187 0 7 3.1328128 7 6.9999998 0 3.867188-3.132813 7-7 7h-212.386719v26.457031h396.398438v-26.457031h-95.398438c-3.867188 0-7-3.132812-7-7 0-3.867187 3.132812-6.9999998 7-6.9999998h102.398438c3.867187 0 7 3.1328128 7 6.9999998v166.28125c2.789062.902344 5.710937 1.339844 8.640624 1.292969 3.867188 0 7 3.132812 7 7v46.90625c0 58.472656-29.230468 100.03125-86.878906 123.523438-1.695312.691406-3.589844.691406-5.285156 0-16.210938-6.386719-31.304688-15.3125-44.71875-26.433594zm107.234376-271.109376h-396.398438v47.269532h396.398438zm-197.636719 121.183594h51.5c.050781-.03125.113281-.039062.167969-.070312.523437-.3125 1.085937-.554688 1.675781-.71875.074219-.019532.132812-.070313.210937-.089844v-14.703125h-53.554687zm107.839843 109.691406-22.167968-22.171874c-4.757813-4.605469-6.660156-11.417969-4.980469-17.820313s6.679687-11.402344 13.082031-13.082031c6.40625-1.675782 13.214844.226562 17.820313 4.984375l9.199219 9.199219 43.113281-43.113282c7.160156-7.160156 18.765625-7.160156 25.925781 0 7.160156 7.15625 7.160156 18.765625.003906 25.925782l-56.082031 56.074218c-7.160156 7.160156-18.765625 7.160156-25.921875 0zm-12.269531-32.050781 22.167969 22.167969c1.714844 1.636719 4.417969 1.636719 6.132812 0l56.074219-56.074219c1.691407-1.691406 1.691407-4.433593 0-6.125-1.691406-1.695312-4.433593-1.695312-6.128906 0l-48.066406 48.03125c-1.3125 1.3125-3.09375 2.050781-4.949219 2.050781-1.859375 0-3.636719-.738281-4.949219-2.050781l-14.152343-14.152343c-1.699219-1.691407-4.449219-1.6875-6.140626.011718-1.691406 1.699219-1.6875 4.449219.011719 6.140625zm0 0" fill="#202e35"/></svg>