<?xml version="1.0" encoding="iso-8859-1"?>
<!-- Generator: Adobe Illustrator 19.0.0, SVG Export Plug-In . SVG Version: 6.00 Build 0)  -->
<svg version="1.1" id="Layer_1" xmlns="http://www.w3.org/2000/svg" xmlns:xlink="http://www.w3.org/1999/xlink" x="0px" y="0px"
	 viewBox="0 0 512 512" style="enable-background:new 0 0 512 512;" xml:space="preserve">
<path style="fill:#00C3FF;" d="M358.614,157.654H50.772c-4.722,0-8.551,3.829-8.551,8.551v179.574h25.653
	c9.445,0,17.102,7.656,17.102,17.102c0,9.445-7.658,17.102-17.102,17.102H42.221v25.653c0,4.722,3.829,8.551,8.551,8.551h316.393
	V166.205C367.165,161.482,363.336,157.654,358.614,157.654z"/>
<path style="fill:#00AAF0;" d="M469.779,294.472H367.165v119.716h136.818v-85.511C503.983,309.786,488.669,294.472,469.779,294.472z
	"/>
<path style="fill:#0096DC;" d="M367.165,320.126h92.638c9.446,0,17.102,7.656,17.102,17.102v76.96h-109.74V320.126z"/>
<path style="fill:#00AAF0;" d="M435.574,191.859h-68.409v34.205h94.063v-8.551C461.228,203.344,449.742,191.859,435.574,191.859z"/>
<polygon style="fill:#B4E6FF;" points="469.779,294.472 452.676,226.063 367.165,226.063 367.165,294.472 "/>
<path style="fill:#F1F4FB;" d="M469.779,328.677h34.205v34.205h-17.102c-9.446,0-17.102-7.656-17.102-17.102V328.677z"/>
<path style="fill:#007DC8;" d="M427.023,354.33c-25.772,0-48.194,14.265-59.858,35.317v24.541h127.676
	C490.624,380.452,461.902,354.33,427.023,354.33z"/>
<path style="fill:#0096DC;" d="M476.904,375.986v38.202h17.937C493.005,399.5,486.518,386.26,476.904,375.986z"/>
<circle style="fill:#5B5D6E;" cx="427.023" cy="422.736" r="42.756"/>
<path style="fill:#9BD6FF;" d="M401.37,251.717h57.72l-6.413-25.653h-85.511v68.409h25.653v-34.205
	C392.818,255.544,396.647,251.717,401.37,251.717z"/>
<path style="fill:#00AAF0;" d="M144.835,354.33c-21.593,0-40.819,10.028-53.355,25.653H67.875H42.221v25.653
	c0,4.722,3.829,8.551,8.551,8.551h316.393v-34.205H198.19C185.654,364.359,166.428,354.33,144.835,354.33z"/>
<circle style="fill:#5B5D6E;" cx="144.835" cy="422.736" r="42.756"/>
<path d="M476.158,286.938l-13.259-53.035c3.625-0.77,6.345-3.986,6.345-7.839v-8.551c0-18.566-15.105-33.67-33.67-33.67h-60.392
	v-17.637c0-9.136-7.432-16.568-16.568-16.568H246.32l68.24-27.296c4.111-1.644,6.11-6.31,4.466-10.421
	c-1.644-4.11-6.308-6.111-10.421-4.466l-55.874,22.349c17.026-10.924,33.871-22.947,40.284-31.355
	c12.485-16.369,9.323-39.843-7.046-52.328c-16.369-12.486-39.843-9.323-52.328,7.046l0,0c-9.122,11.962-21.158,45.573-28.948,69.258
	c-7.79-23.683-19.826-57.296-28.948-69.258l0,0c-12.484-16.369-35.959-19.53-52.328-7.046s-19.53,35.958-7.046,52.328
	c6.413,8.409,23.257,20.431,40.284,31.355l-55.874-22.349c-4.113-1.647-8.777,0.355-10.421,4.466
	c-1.645,4.111,0.355,8.777,4.466,10.421l68.24,27.296H50.772c-9.136,0-16.568,7.432-16.568,16.568v145.37
	c0,4.427,3.589,8.017,8.017,8.017s8.017-3.589,8.017-8.017v-145.37c0-0.295,0.239-0.534,0.534-0.534h307.841
	c0.295,0,0.534,0.239,0.534,0.534v145.372c0,4.427,3.589,8.017,8.017,8.017c4.427,0,8.017-3.589,8.017-8.017v-9.088h94.566
	c0.009,0,0.016,0.002,0.025,0.002c0.009,0,0.017-0.001,0.026-0.001c11.636,0.009,21.516,7.647,24.908,18.171h-24.928
	c-4.427,0-8.017,3.589-8.017,8.017v17.102c0,13.851,11.268,25.119,25.119,25.119h9.086v35.273h-20.962
	c-6.886-19.883-25.787-34.205-47.982-34.205s-41.097,14.322-47.982,34.205h-3.86V345.78c0-4.427-3.589-8.017-8.017-8.017
	c-4.427,0-8.017,3.589-8.017,8.017v60.392H192.817c-6.886-19.883-25.787-34.205-47.982-34.205s-41.097,14.322-47.982,34.205H50.772
	c-0.295,0-0.534-0.239-0.534-0.534v-17.637h34.739c4.427,0,8.017-3.589,8.017-8.017c0-4.427-3.589-8.017-8.017-8.017H8.017
	c-4.427,0-8.017,3.589-8.017,8.017c0,4.427,3.589,8.017,8.017,8.017h26.188v17.637c0,9.136,7.432,16.568,16.568,16.568h43.304
	c-0.002,0.178-0.014,0.355-0.014,0.534c0,27.995,22.777,50.772,50.772,50.772s50.772-22.777,50.772-50.772
	c0-0.18-0.012-0.356-0.014-0.534h180.67c-0.002,0.178-0.014,0.355-0.014,0.534c0,27.995,22.777,50.772,50.772,50.772
	c27.995,0,50.772-22.777,50.772-50.772c0-0.18-0.012-0.356-0.014-0.534h26.203c4.427,0,8.017-3.589,8.017-8.017v-85.511
	C512,307.564,496.423,290.022,476.158,286.938z M246.391,62.89L246.391,62.89c7.123-9.339,20.516-11.142,29.855-4.02
	c9.34,7.123,11.143,20.516,4.021,29.855c-2.777,3.641-12.157,12.683-43.778,32.333c-6.385,3.968-12.604,7.698-18.016,10.883
	C226.491,107.281,238.636,73.06,246.391,62.89z M129.12,88.725c-7.123-9.339-5.319-22.732,4.021-29.855
	c3.85-2.936,8.388-4.355,12.893-4.355c6.422,0,12.776,2.886,16.963,8.376l0,0c7.755,10.168,19.9,44.391,27.918,69.052
	c-5.412-3.185-11.632-6.915-18.016-10.883C141.277,101.409,131.897,92.367,129.12,88.725z M375.182,234.08h71.235l13.094,52.376
	h-84.329V234.08z M435.574,199.875c9.725,0,17.637,7.912,17.637,17.637v0.534h-78.029v-18.171H435.574z M144.835,457.479
	c-19.155,0-34.739-15.584-34.739-34.739c0-19.155,15.584-34.739,34.739-34.739c19.155,0,34.739,15.584,34.739,34.739
	C179.574,441.894,163.99,457.479,144.835,457.479z M427.023,457.479c-19.155,0-34.739-15.584-34.739-34.739
	c0-19.155,15.584-34.739,34.739-34.739c19.155,0,34.739,15.584,34.739,34.739C461.762,441.894,446.178,457.479,427.023,457.479z
	 M486.881,354.865c-5.01,0-9.086-4.076-9.086-9.086v-9.086h18.171v18.171H486.881z"/>
<path d="M144.835,406.172c-9.136,0-16.568,7.432-16.568,16.568s7.432,16.568,16.568,16.568c9.136,0,16.568-7.432,16.568-16.568
	S153.971,406.172,144.835,406.172z"/>
<path d="M427.023,406.172c-9.136,0-16.568,7.432-16.568,16.568s7.432,16.568,16.568,16.568s16.568-7.432,16.568-16.568
	S436.159,406.172,427.023,406.172z"/>
<path d="M205.228,379.984c0,4.427,3.589,8.017,8.017,8.017H332.96c4.427,0,8.017-3.589,8.017-8.017c0-4.427-3.589-8.017-8.017-8.017
	H213.244C208.817,371.967,205.228,375.557,205.228,379.984z"/>
<path d="M25.119,353.796h102.614c4.427,0,8.017-3.589,8.017-8.017s-3.589-8.017-8.017-8.017H25.119
	c-4.427,0-8.017,3.589-8.017,8.017S20.692,353.796,25.119,353.796z"/>
<path d="M127.733,234.08c4.427,0,8.017-3.589,8.017-8.017s-3.589-8.017-8.017-8.017H93.528c-4.427,0-8.017,3.589-8.017,8.017v68.409
	c0,4.427,3.589,8.017,8.017,8.017c4.427,0,8.017-3.589,8.017-8.017v-26.188h17.637c4.427,0,8.017-3.589,8.017-8.017
	c0-4.427-3.589-8.017-8.017-8.017h-17.637V234.08L127.733,234.08L127.733,234.08z"/>
<path d="M204.159,247.441c0-16.209-13.186-29.395-29.395-29.395h-21.378c-4.427,0-8.017,3.589-8.017,8.017v68.409
	c0,4.427,3.589,8.017,8.017,8.017c4.427,0,8.017-3.589,8.017-8.017v-17.637h13.346l14.722,22.083
	c1.545,2.317,4.086,3.571,6.677,3.571c1.529,0,3.073-0.436,4.439-1.348c3.684-2.455,4.68-7.433,2.223-11.116l-11.989-17.983
	C198.845,266.788,204.159,257.726,204.159,247.441z M161.403,234.08h13.361c7.368,0,13.361,5.993,13.361,13.361
	s-5.993,13.361-13.361,13.361h-13.361V234.08z"/>
<path d="M256,234.08c4.427,0,8.017-3.589,8.017-8.017s-3.589-8.017-8.017-8.017h-34.205c-4.427,0-8.017,3.589-8.017,8.017v68.409
	c0,4.427,3.589,8.017,8.017,8.017H256c4.427,0,8.017-3.589,8.017-8.017c0-4.427-3.589-8.017-8.017-8.017h-26.188v-18.198
	c0.177,0.012,0.354,0.027,0.534,0.027h17.102c4.427,0,8.017-3.589,8.017-8.017c0-4.427-3.589-8.017-8.017-8.017h-17.102
	c-0.181,0-0.357,0.015-0.534,0.027V234.08L256,234.08L256,234.08z"/>
<path d="M315.858,234.08c4.427,0,8.017-3.589,8.017-8.017s-3.589-8.017-8.017-8.017h-34.205c-4.427,0-8.017,3.589-8.017,8.017
	v68.409c0,4.427,3.589,8.017,8.017,8.017h34.205c4.427,0,8.017-3.589,8.017-8.017c0-4.427-3.589-8.017-8.017-8.017H289.67v-18.171
	h9.086c4.427,0,8.017-3.589,8.017-8.017c0-4.427-3.589-8.017-8.017-8.017h-9.086V234.08L315.858,234.08L315.858,234.08z"/>
<g>
</g>
<g>
</g>
<g>
</g>
<g>
</g>
<g>
</g>
<g>
</g>
<g>
</g>
<g>
</g>
<g>
</g>
<g>
</g>
<g>
</g>
<g>
</g>
<g>
</g>
<g>
</g>
<g>
</g>
</svg>
