<?xml version="1.0" encoding="utf-8"?>
<!-- Generator: Adobe Illustrator 22.0.1, SVG Export Plug-In . SVG Version: 6.00 Build 0)  -->
<svg xmlns="http://www.w3.org/2000/svg" xmlns:xlink="http://www.w3.org/1999/xlink" version="1.1" id="Layer_1" x="0px" y="0px" viewBox="0 0 256 256" style="enable-background:new 0 0 256 256;" xml:space="preserve" width="512" height="512">
<style type="text/css">
	.st0{fill:#3A312A;}
	.st1{fill:#D7E057;}
	.st2{fill:#F16C7A;}
	.st3{fill:#FCE8CB;}
	.st4{fill:#87796F;}
	.st5{fill:#8AC6DD;}
	.st6{fill:#CE4E61;}
	.st7{fill:#6CA8BF;}
	.st8{fill:#B9C239;}
	.st9{fill:#DECAAD;}
	.st10{fill:#695B51;}
	.st11{fill-rule:evenodd;clip-rule:evenodd;fill:#FCE8CB;}
	.st12{fill:#F5978A;}
	.st13{fill:#68A8BC;}
	.st14{fill:#B9BC39;}
	.st15{fill:#6B5B51;}
	.st16{fill:#D34E5C;}
	.st17{fill-rule:evenodd;clip-rule:evenodd;fill:#87796F;}
	.st18{fill-rule:evenodd;clip-rule:evenodd;fill:#F16C7A;}
</style>
<g>
	<g>
		<g>
			<path class="st1" d="M47.371,26.274c-0.974,11.564-13.025,13.39-13.025,13.39c10.347,0.487,12.925,14.059,12.925,14.059     c0.221-9.677,13.321-14.202,13.321-14.202C50.779,38.933,47.371,26.274,47.371,26.274z"/>
		</g>
	</g>
	<g>
		<g>
			<path class="st0" d="M60.683,38.023c-8.604-0.514-11.832-12.024-11.863-12.14c-0.19-0.702-0.852-1.163-1.584-1.102     c-0.725,0.067-1.298,0.642-1.359,1.367c-0.859,10.215-11.313,11.963-11.754,12.032c-0.763,0.115-1.313,0.79-1.273,1.56     c0.04,0.77,0.657,1.384,1.428,1.421c9.027,0.425,11.498,12.718,11.521,12.842c0.138,0.711,0.76,1.217,1.473,1.217     c0.042,0,0.084-0.001,0.126-0.005c0.765-0.064,1.357-0.693,1.375-1.46c0.193-8.508,12.191-12.777,12.313-12.819     c0.676-0.235,1.092-0.914,0.994-1.623C61.979,38.607,61.396,38.066,60.683,38.023z M47.116,48.369     c-1.356-3.13-3.708-6.907-7.586-8.877c2.931-1.404,6.408-3.913,8.201-8.272c1.551,3.071,4.199,6.88,8.334,8.722     C53.058,41.582,49.143,44.347,47.116,48.369z"/>
		</g>
	</g>
	<g>
		<g>
			<path class="st1" d="M25.672,43.255c-0.689,8.179-9.213,9.471-9.213,9.471c7.318,0.344,9.142,9.944,9.142,9.944     c0.156-6.844,9.422-10.045,9.422-10.045C28.083,52.209,25.672,43.255,25.672,43.255z"/>
		</g>
	</g>
	<g>
		<g>
			<path class="st0" d="M35.114,51.127c-5.767-0.345-7.973-8.185-7.995-8.264c-0.189-0.702-0.86-1.164-1.581-1.102     c-0.726,0.065-1.3,0.643-1.361,1.368c-0.578,6.87-7.646,8.066-7.941,8.113c-0.763,0.115-1.313,0.79-1.273,1.56     c0.04,0.77,0.657,1.384,1.428,1.421c6.035,0.284,7.723,8.644,7.738,8.726c0.136,0.713,0.759,1.22,1.473,1.22     c0.041,0,0.083-0.001,0.124-0.005c0.766-0.063,1.359-0.694,1.377-1.461c0.13-5.709,8.332-8.634,8.413-8.662     c0.676-0.234,1.093-0.913,0.996-1.622C36.413,51.711,35.828,51.169,35.114,51.127z M25.529,57.921     c-0.924-1.885-2.341-3.947-4.447-5.28c1.856-1.041,3.697-2.629,4.87-4.916c1.058,1.874,2.655,3.955,4.941,5.224     C29.044,54.05,26.905,55.69,25.529,57.921z"/>
		</g>
	</g>
	<g>
		<g>
			<path class="st1" d="M25.672,16.597c-0.689,8.179-9.213,9.471-9.213,9.471c7.318,0.344,9.142,9.944,9.142,9.944     c0.156-6.845,9.422-10.045,9.422-10.045C28.083,25.551,25.672,16.597,25.672,16.597z"/>
		</g>
	</g>
	<g>
		<g>
			<path class="st0" d="M35.114,24.469c-5.767-0.345-7.973-8.185-7.995-8.265c-0.189-0.702-0.86-1.164-1.581-1.102     c-0.726,0.065-1.3,0.643-1.361,1.368c-0.578,6.871-7.646,8.067-7.941,8.114c-0.763,0.115-1.313,0.79-1.273,1.56     c0.04,0.77,0.657,1.384,1.428,1.421c6.035,0.284,7.723,8.644,7.738,8.726c0.136,0.713,0.759,1.22,1.473,1.22     c0.041,0,0.083-0.002,0.124-0.005c0.766-0.064,1.359-0.694,1.377-1.461c0.13-5.709,8.332-8.634,8.412-8.662     c0.677-0.234,1.094-0.913,0.997-1.622C36.413,25.054,35.828,24.512,35.114,24.469z M25.529,31.264     c-0.924-1.886-2.34-3.947-4.447-5.28c1.856-1.041,3.697-2.63,4.87-4.916c1.058,1.873,2.655,3.954,4.941,5.224     C29.044,27.392,26.905,29.032,25.529,31.264z"/>
		</g>
	</g>
	<g>
		<g>
			<path class="st5" d="M232.365,78.58c-5.447-1.997-11.477,0.785-13.5,6.214c-6.502-11.717-15.23-22.205-25.756-30.714     c-1.872-1.513-3.805-2.938-5.771-4.312l-13.068-7.794c-14.43-7.214-30.473-11.068-46.76-11.068     c-23.815,0-47.111,8.23-65.599,23.174c-18.205,14.716-31.077,35.329-36.245,58.042c-0.179,0.787-0.264,1.574-0.264,2.348     c0,4.81,3.314,9.155,8.203,10.267c5.676,1.291,11.324-2.263,12.616-7.939c8.683-38.162,42.11-64.814,81.289-64.814     c31.941,0,60.054,17.718,74.058,44.942l-4.906-1.799c-5.464-2.003-11.519,0.803-13.523,6.268     c-0.439,1.197-0.647,2.422-0.647,3.627c0,4.296,2.647,8.332,6.916,9.897l26.125,9.577c5.464,2.003,11.519-0.803,13.522-6.268     l9.577-26.125C240.638,86.639,237.829,80.584,232.365,78.58z"/>
		</g>
	</g>
	<g>
		<g>
			<path class="st0" d="M239.66,83.413c-1.353-2.918-3.76-5.134-6.779-6.241c-5.256-1.927-11.035,0.071-14.073,4.5     c-6.513-11.07-14.831-20.735-24.757-28.758c-1.746-1.412-3.661-2.842-5.854-4.375c-0.679-0.475-1.614-0.31-2.089,0.37     c-0.475,0.679-0.309,1.614,0.37,2.089c2.135,1.492,3.995,2.882,5.687,4.249c10.333,8.353,18.875,18.539,25.388,30.275     c0.284,0.511,0.829,0.817,1.424,0.768c0.584-0.043,1.089-0.423,1.293-0.972c1.731-4.644,6.926-7.035,11.578-5.33     c2.268,0.831,4.075,2.496,5.091,4.686c1.016,2.191,1.117,4.646,0.285,6.913l-9.577,26.125c-0.831,2.267-2.495,4.075-4.686,5.09     c-2.191,1.015-4.646,1.117-6.912,0.286l-26.125-9.577c-3.548-1.301-5.932-4.712-5.932-8.489c0-1.061,0.187-2.107,0.555-3.11     c0.831-2.267,2.496-4.075,4.687-5.09c2.19-1.016,4.646-1.116,6.911-0.286l4.906,1.798c0.583,0.214,1.231,0.048,1.641-0.415     c0.409-0.463,0.492-1.13,0.21-1.679c-14.518-28.223-43.406-45.755-75.392-45.755c-39.884,0-73.913,27.132-82.752,65.981     c-1.106,4.86-5.962,7.913-10.819,6.809c-4.144-0.943-7.037-4.564-7.037-8.805c0-0.673,0.076-1.352,0.228-2.015     c5.094-22.387,17.781-42.704,35.726-57.209c18.221-14.729,41.183-22.841,64.655-22.841c15.876,0,31.813,3.772,46.089,10.91     c0.743,0.37,1.643,0.07,2.013-0.671c0.37-0.741,0.07-1.642-0.671-2.013c-14.69-7.344-31.092-11.227-47.431-11.227     c-24.157,0-47.788,8.349-66.542,23.508C42.502,67.839,29.445,88.749,24.203,111.79c-0.2,0.882-0.302,1.784-0.302,2.68     c0,5.651,3.854,10.475,9.371,11.729c6.465,1.473,12.938-2.595,14.411-9.068c8.525-37.475,41.352-63.647,79.826-63.647     c29.524,0,56.312,15.481,70.835,40.663l-1.167-0.428c-3.019-1.107-6.289-0.972-9.206,0.38c-2.918,1.352-5.134,3.76-6.241,6.779     c-0.49,1.334-0.738,2.728-0.738,4.144c0,5.03,3.174,9.573,7.898,11.305l26.125,9.577c1.352,0.496,2.753,0.742,4.15,0.742     c1.725,0,3.444-0.375,5.056-1.123c2.918-1.352,5.135-3.76,6.241-6.78l9.577-26.123C241.148,89.601,241.014,86.331,239.66,83.413z     "/>
		</g>
	</g>
	<g>
		<g>
			<path class="st5" d="M222.195,145.567c-5.677-1.291-11.324,2.263-12.616,7.939c-8.683,38.162-42.11,64.814-81.289,64.814     c-12.911,0-25.195-2.898-36.177-8.145l-13.052-7.795c-10.309-7.516-18.855-17.389-24.828-29.001l4.905,1.798     c5.465,2.003,11.52-0.803,13.523-6.268c2.008-5.465-0.803-11.52-6.267-13.523l-26.125-9.577c-2.625-0.962-5.524-0.842-8.06,0.334     c-2.536,1.175-4.502,3.31-5.463,5.935l-9.578,26.125c-0.439,1.197-0.647,2.422-0.647,3.627c0,4.296,2.647,8.332,6.915,9.897     c5.447,1.997,11.477-0.786,13.5-6.214c6.502,11.717,15.23,22.205,25.755,30.714c18.488,14.944,41.784,23.174,65.599,23.174     c23.815,0,47.111-8.23,65.599-23.174c18.205-14.716,31.077-35.329,36.245-58.042     C231.425,152.503,227.871,146.858,222.195,145.567z"/>
		</g>
	</g>
	<g>
		<g>
			<path class="st0" d="M230.046,149.431c-1.712-2.721-4.383-4.613-7.519-5.326c-6.465-1.473-12.938,2.595-14.412,9.068     c-8.525,37.475-41.352,63.647-79.825,63.647c-12.471,0-24.425-2.691-35.53-7.998c-0.745-0.357-1.643-0.041-2,0.706     c-0.357,0.748-0.041,1.643,0.707,2c11.513,5.502,23.901,8.292,36.823,8.292c39.884,0,73.912-27.132,82.751-65.981     c1.106-4.86,5.965-7.918,10.82-6.809c2.355,0.535,4.36,1.955,5.646,3.998c1.285,2.043,1.698,4.466,1.162,6.821     c-5.094,22.386-17.78,42.704-35.725,57.209c-18.221,14.729-41.183,22.841-64.655,22.841c-23.473,0-46.435-8.112-64.656-22.841     c-10.333-8.353-18.874-18.539-25.387-30.275c-0.284-0.511-0.827-0.812-1.424-0.768c-0.584,0.044-1.089,0.423-1.293,0.972     c-1.732,4.646-6.93,7.035-11.579,5.33c-3.547-1.302-5.931-4.713-5.931-8.489c0-1.059,0.187-2.106,0.555-3.111l9.578-26.125     c0.83-2.266,2.494-4.074,4.686-5.089c2.191-1.015,4.646-1.116,6.913-0.286l26.125,9.577c2.267,0.832,4.075,2.496,5.091,4.687     c1.016,2.191,1.117,4.646,0.284,6.913c-0.831,2.267-2.495,4.075-4.686,5.09c-2.192,1.016-4.648,1.116-6.913,0.286l-4.904-1.798     c-0.581-0.212-1.231-0.048-1.641,0.415c-0.409,0.463-0.492,1.13-0.21,1.679c5.975,11.616,14.716,21.826,25.278,29.526     c0.668,0.488,1.606,0.341,2.096-0.328c0.488-0.669,0.341-1.608-0.328-2.096c-9.121-6.65-16.835-15.241-22.484-25.007l1.16,0.425     c3.02,1.107,6.288,0.973,9.208-0.381c2.918-1.353,5.134-3.76,6.24-6.779c1.109-3.019,0.975-6.289-0.379-9.207     c-1.353-2.918-3.76-5.134-6.779-6.241L40.784,144.4c-3.016-1.107-6.287-0.972-9.207,0.381c-2.919,1.352-5.135,3.76-6.24,6.779     l-9.578,26.125c-0.49,1.337-0.738,2.731-0.738,4.143c0,5.029,3.174,9.572,7.898,11.305c5.258,1.927,11.035-0.072,14.074-4.5     c6.513,11.07,14.831,20.735,24.755,28.758c18.755,15.159,42.387,23.508,66.543,23.508c24.157,0,47.788-8.349,66.542-23.508     c18.465-14.927,31.521-35.836,36.764-58.877C232.31,155.378,231.759,152.152,230.046,149.431z"/>
		</g>
	</g>
	<g>
		<g>
			
				<ellipse transform="matrix(0.9239 -0.3827 0.3827 0.9239 -41.9848 59.233)" class="st1" cx="127.9" cy="135.152" rx="50.678" ry="50.678"/>
		</g>
	</g>
	<g>
		<g>
			<path class="st0" d="M127.899,82.975c-28.771,0-52.177,23.407-52.177,52.178s23.406,52.178,52.177,52.178     c28.771,0,52.178-23.407,52.178-52.178S156.67,82.975,127.899,82.975z M127.899,184.33c-27.116,0-49.177-22.061-49.177-49.178     s22.061-49.178,49.177-49.178s49.178,22.061,49.178,49.178S155.016,184.33,127.899,184.33z"/>
		</g>
	</g>
	<g>
		<g>
			<path class="st4" d="M133.925,129.421c-7.381-2.778-10.42-4.601-10.42-7.467c0-2.43,1.824-4.862,7.468-4.862     c6.251,0,10.246,1.996,12.503,2.952l2.518-9.811c-2.866-1.39-6.773-2.607-12.591-2.866v-7.642h-8.509v8.248     c-9.291,1.824-14.674,7.815-14.674,15.456c0,8.423,6.339,12.765,15.629,15.89c6.426,2.171,9.204,4.256,9.204,7.554     c0,3.474-3.387,5.384-8.336,5.384c-5.644,0-10.767-1.824-14.414-3.82l-2.605,10.158c3.3,1.91,8.943,3.472,14.76,3.734v8.248h8.51     v-8.857c9.986-1.735,15.456-8.335,15.456-16.063C148.426,137.845,144.257,133.069,133.925,129.421z"/>
		</g>
	</g>
	<g>
		<g>
			<path class="st0" d="M134.453,128.018c-6.976-2.625-9.448-4.212-9.448-6.063c0-2.925,3.739-3.362,5.968-3.362     c5.393,0,8.932,1.538,11.273,2.556l0.645,0.278c0.403,0.17,0.858,0.157,1.25-0.037c0.392-0.193,0.68-0.548,0.788-0.971     l2.519-9.811c0.177-0.691-0.157-1.412-0.799-1.723c-3.361-1.63-7.215-2.592-11.744-2.93v-6.229c0-0.829-0.672-1.5-1.5-1.5h-8.51     c-0.828,0-1.5,0.671-1.5,1.5v7.042c-9.087,2.204-14.675,8.5-14.675,16.663c0,10.38,8.899,14.705,16.649,17.312     c6.793,2.295,8.185,4.111,8.185,6.133c0,3.604-5.232,3.884-6.836,3.884c-6.135,0-11.213-2.278-13.693-3.636     c-0.408-0.222-0.892-0.245-1.318-0.06c-0.425,0.185-0.74,0.555-0.855,1.003l-2.604,10.159c-0.167,0.651,0.12,1.334,0.702,1.671     c3.435,1.988,8.7,3.42,14.012,3.844v6.839c0,0.829,0.672,1.5,1.5,1.5h8.509c0.828,0,1.5-0.671,1.5-1.5v-7.625     c9.435-2.092,15.457-8.771,15.457-17.295C149.926,137.122,145.29,131.842,134.453,128.018z M132.712,160.244     c-0.719,0.125-1.243,0.749-1.243,1.478v7.357h-5.509v-6.749c0-0.802-0.631-1.462-1.433-1.499     c-4.753-0.213-9.732-1.371-13.082-3.005l1.847-7.204c3.041,1.436,7.825,3.136,13.426,3.136c6.067,0,9.836-2.638,9.836-6.884     c0-4.582-4.087-6.901-10.226-8.976c-10.239-3.444-14.608-7.771-14.608-14.469c0-7.102,5.033-12.33,13.464-13.984     c0.703-0.138,1.211-0.754,1.211-1.472v-6.748h5.51v6.142c0,0.803,0.632,1.463,1.434,1.499c4.224,0.188,7.801,0.914,10.891,2.214     l-1.771,6.893c-2.472-1.039-6.222-2.382-11.485-2.382c-8.321,0-8.968,4.87-8.968,6.362c0,3.898,3.673,5.967,11.421,8.882     c9.715,3.429,13.5,7.586,13.5,14.823C146.926,153.132,141.479,158.721,132.712,160.244z"/>
		</g>
	</g>
	<g>
		<g>
			<path class="st8" d="M127.9,85.979c-2.55,0-5.05,0.2-7.5,0.57c23.57,3.62,41.68,24.04,41.68,48.6     c0,24.57-18.11,44.99-41.68,48.61c2.45,0.38,4.95,0.57,7.5,0.57c27.12,0,49.18-22.06,49.18-49.18     C177.08,108.039,155.02,85.979,127.9,85.979z"/>
		</g>
	</g>
</g>
</svg>
