<?xml version="1.0" encoding="iso-8859-1"?>
<!-- Generator: Adobe Illustrator 19.0.0, SVG Export Plug-In . SVG Version: 6.00 Build 0)  -->
<svg version="1.1" id="Capa_1" xmlns="http://www.w3.org/2000/svg" xmlns:xlink="http://www.w3.org/1999/xlink" x="0px" y="0px"
	 viewBox="0 0 512 512" style="enable-background:new 0 0 512 512;" xml:space="preserve">
<path style="fill:#FFCDAC;" d="M304.623,329.473v34.337c0,15.744,11.369,22.801,28.44,28.506l72.931,16.564
	c34.321,7.22,57.626,24.149,57.626,53.938L463.638,502h-40.65h-80.875H48.362v-39.182c0-29.789,23.305-46.718,57.626-53.938
	l72.931-16.564c17.072-5.705,28.44-12.763,28.44-28.506v-34.337H304.623z"/>
<path style="fill:#32C8AF;" d="M405.994,408.88l-67.78-15.394C301.44,415.489,256,442.676,256,442.676l-82.219-49.193
	l-67.792,15.396c-34.321,7.22-57.626,24.149-57.626,53.938V502h293.75h80.875h40.65l-0.017-39.182
	C463.621,433.029,440.316,416.1,405.994,408.88z"/>
<path style="fill:#C8F5FF;" d="M153.667,256H116V136c0-69.588,56.412-126,126-126h28c69.588,0,126,56.412,126,126v120h-37.25
	H153.667z"/>
<g>
	<path style="fill:#78D2FA;" d="M396,256h28.667C444.181,256,460,240.181,460,220.667v-33.333C460,167.819,444.181,152,424.667,152
		H396V256z"/>
	<path style="fill:#78D2FA;" d="M116,256H87.333C67.819,256,52,240.181,52,220.667v-33.333C52,167.819,67.819,152,87.333,152H116
		V256z"/>
</g>
<path id="SVGCleanerId_0" style="fill:#FFCDAC;" d="M266,330h-20c-49.706,0-90-40.294-90-90V140c0-49.706,40.294-90,90-90h20
	c49.706,0,90,40.294,90,90v100C356,289.706,315.706,330,266,330z"/>
<g>
	<path id="SVGCleanerId_0_1_" style="fill:#FFCDAC;" d="M266,330h-20c-49.706,0-90-40.294-90-90V140c0-49.706,40.294-90,90-90h20
		c49.706,0,90,40.294,90,90v100C356,289.706,315.706,330,266,330z"/>
</g>
<path style="fill:#FAE196;" d="M266,50h-20c-49.706,0-90,40.294-90,90v49.764h27.448c34.806,0,68.643-9.334,98.189-26.596
	l-0.005,0.098c16.437,16.437,38.731,25.672,61.977,25.672H356V140C356,90.294,315.706,50,266,50z"/>
<path d="M473.621,462.817c0-32.179-23.256-54.801-65.489-63.707l-72.361-16.434c-17.762-6.007-21.147-11.279-21.147-18.867v-36.455
	c14.209-7.941,26.292-19.245,35.163-32.831h17.689c17.784,0,32.785-12.116,37.2-28.524h19.991C449.664,266,470,245.664,470,220.667
	v-33.333C470,162.336,449.664,142,424.667,142H406v-6C406,61.009,344.991,0,270,0h-28c-74.991,0-136,61.009-136,136v6H87.333
	C62.336,142,42,162.336,42,187.333v33.333C42,245.664,62.336,266,87.333,266h62.102c7.108,26.372,24.754,48.463,48.128,61.459
	c-0.133,0.65-0.203,1.324-0.203,2.014v34.337c0,7.587-3.385,12.86-21.148,18.867l-72.36,16.434
	c-42.233,8.905-65.489,31.528-65.489,63.707V502c0,5.523,4.477,10,10,10h293.75c5.523,0,10-4.477,10-10s-4.477-10-10-10H58.362
	v-29.183c0-22.362,16.716-37.217,49.685-44.152c0.052-0.011,0.104-0.022,0.156-0.034l63.882-14.508l78.78,47.135
	c1.581,0.945,3.357,1.418,5.134,1.418s3.554-0.473,5.134-1.418l78.775-47.132l63.87,14.506c0.052,0.012,0.104,0.023,0.156,0.034
	c32.968,6.935,49.685,21.79,49.685,44.156L453.633,492h-30.646c-5.523,0-10,4.477-10,10s4.477,10,10,10h40.65
	c2.653,0,5.197-1.054,7.073-2.931c1.875-1.876,2.928-4.421,2.927-7.074L473.621,462.817z M367.476,274.524h-7.621
	c1.028-2.785,1.93-5.63,2.71-8.524h20.48C379.745,271.119,374.006,274.524,367.476,274.524z M328.158,125.681
	c-3.905-3.905-10.237-3.905-14.143,0c-34.875,34.876-81.245,54.083-130.567,54.083H166V140c0-44.112,35.888-80,80-80h20
	c44.112,0,80,35.888,80,80v38.938h-2.391c-16.446,0-32.101-5.096-45.195-14.511c10.615-7.209,20.558-15.419,29.744-24.605
	C332.063,135.918,332.063,129.586,328.158,125.681z M424.667,162C438.635,162,450,173.365,450,187.333v33.333
	C450,234.635,438.635,246,424.667,246H406v-84H424.667z M62,220.667v-33.333C62,173.365,73.365,162,87.333,162H106v84H87.333
	C73.365,246,62,234.635,62,220.667z M126,246v-94v-16c0-63.962,52.038-116,116-116h28c63.962,0,116,52.038,116,116v16v94h-20.185
	c0.118-1.986,0.185-3.985,0.185-6V140c0-55.14-44.86-100-100-100h-20c-55.14,0-100,44.86-100,100v100c0,2.015,0.067,4.014,0.185,6
	H126z M166,240v-40.236h17.448c27.011,0,53.361-5.241,78.316-15.578c6.292-2.606,12.417-5.506,18.367-8.69
	c17.676,15.168,39.94,23.442,63.478,23.442H346V240c0,12.357-2.819,24.066-7.843,34.524h-45.021c-5.523,0-10,4.477-10,10
	s4.477,10,10,10h31.33C309.853,310.183,289.057,320,266,320h-20C201.888,320,166,284.112,166,240z M256,431.023l-59.109-35.366
	c11.466-6.117,20.469-15.442,20.469-31.847v-27.996C226.437,338.532,236.05,340,246,340h20c9.944,0,19.551-1.466,28.623-4.181
	v27.991c0,16.409,9.008,25.735,20.478,31.852L256,431.023z"/>
<path d="M256,294.52c2.63,0,5.21-1.06,7.07-2.93c1.86-1.86,2.93-4.43,2.93-7.07c0-2.63-1.07-5.21-2.93-7.07
	c-1.86-1.86-4.44-2.92-7.07-2.92s-5.21,1.06-7.07,2.92c-1.86,1.87-2.93,4.44-2.93,7.07c0,2.64,1.07,5.21,2.93,7.07
	C250.79,293.46,253.37,294.52,256,294.52z"/>
<path d="M381.65,492c-2.63,0-5.21,1.07-7.07,2.93c-1.86,1.86-2.93,4.44-2.93,7.07s1.07,5.21,2.93,7.07
	c1.86,1.86,4.44,2.93,7.07,2.93c2.64,0,5.21-1.07,7.07-2.93c1.87-1.86,2.93-4.44,2.93-7.07s-1.06-5.21-2.93-7.07
	C386.86,493.07,384.29,492,381.65,492z"/>
<g>
</g>
<g>
</g>
<g>
</g>
<g>
</g>
<g>
</g>
<g>
</g>
<g>
</g>
<g>
</g>
<g>
</g>
<g>
</g>
<g>
</g>
<g>
</g>
<g>
</g>
<g>
</g>
<g>
</g>
</svg>
